<mxfile host="app.diagrams.net" modified="2020-08-03T04:12:11.440Z" agent="5.0 (X11; Linux x86_64) AppleWebKit/537.36 (KHTML, like Gecko) Chrome/84.0.4147.105 Safari/537.36" etag="k3ZNsb48wrKxk6CXB7O4" version="13.5.8" type="github" pages="19">
  <diagram id="40D4RM83zULxuvOTv6Km" name="Page-1">
    <mxGraphModel dx="1422" dy="761" grid="1" gridSize="10" guides="1" tooltips="1" connect="1" arrows="1" fold="1" page="1" pageScale="1" pageWidth="1920" pageHeight="1200" math="0" shadow="0">
      <root>
        <mxCell id="NaOqLIsAumZvVAXc-VA2-0" />
        <mxCell id="NaOqLIsAumZvVAXc-VA2-1" parent="NaOqLIsAumZvVAXc-VA2-0" />
        <mxCell id="NaOqLIsAumZvVAXc-VA2-2" value="权限管理" style="ellipse;whiteSpace=wrap;html=1;" parent="NaOqLIsAumZvVAXc-VA2-1" vertex="1">
          <mxGeometry x="100" y="110" width="140" height="70" as="geometry" />
        </mxCell>
        <mxCell id="NaOqLIsAumZvVAXc-VA2-3" value="工单处理" style="ellipse;whiteSpace=wrap;html=1;" parent="NaOqLIsAumZvVAXc-VA2-1" vertex="1">
          <mxGeometry x="360" y="110" width="140" height="70" as="geometry" />
        </mxCell>
        <mxCell id="NaOqLIsAumZvVAXc-VA2-4" value="流程审批" style="ellipse;whiteSpace=wrap;html=1;" parent="NaOqLIsAumZvVAXc-VA2-1" vertex="1">
          <mxGeometry x="640" y="110" width="140" height="70" as="geometry" />
        </mxCell>
      </root>
    </mxGraphModel>
  </diagram>
  <diagram id="fjFDqfXauCQfnjHfFs87" name="Page-2">
    
    <mxGraphModel dx="1422" dy="761" grid="1" gridSize="10" guides="1" tooltips="1" connect="1" arrows="1" fold="1" page="1" pageScale="1" pageWidth="1920" pageHeight="1200" math="0" shadow="0">
      
      <root>
        
        <mxCell id="chQNSu7xCShgCPtltvOy-0" />
        
        <mxCell id="chQNSu7xCShgCPtltvOy-1" parent="chQNSu7xCShgCPtltvOy-0" />
        
        <mxCell id="mWuQjWbJ8XSNbEWzJ-N2-2" value="" style="edgeStyle=orthogonalEdgeStyle;rounded=0;orthogonalLoop=1;jettySize=auto;html=1;" parent="chQNSu7xCShgCPtltvOy-1" source="mWuQjWbJ8XSNbEWzJ-N2-0" target="mWuQjWbJ8XSNbEWzJ-N2-1" edge="1">
          
          <mxGeometry relative="1" as="geometry" />
          
        </mxCell>
        
        <mxCell id="mWuQjWbJ8XSNbEWzJ-N2-0" value="用户" style="ellipse;whiteSpace=wrap;html=1;" parent="chQNSu7xCShgCPtltvOy-1" vertex="1">
          
          <mxGeometry x="200" y="80" width="120" height="80" as="geometry" />
          
        </mxCell>
        
        <mxCell id="mWuQjWbJ8XSNbEWzJ-N2-4" value="" style="edgeStyle=orthogonalEdgeStyle;rounded=0;orthogonalLoop=1;jettySize=auto;html=1;" parent="chQNSu7xCShgCPtltvOy-1" source="mWuQjWbJ8XSNbEWzJ-N2-1" target="mWuQjWbJ8XSNbEWzJ-N2-3" edge="1">
          
          <mxGeometry relative="1" as="geometry" />
          
        </mxCell>
        
        <mxCell id="mWuQjWbJ8XSNbEWzJ-N2-1" value="角色" style="ellipse;whiteSpace=wrap;html=1;" parent="chQNSu7xCShgCPtltvOy-1" vertex="1">
          
          <mxGeometry x="400" y="80" width="120" height="80" as="geometry" />
          
        </mxCell>
        
        <mxCell id="mWuQjWbJ8XSNbEWzJ-N2-3" value="权限" style="ellipse;whiteSpace=wrap;html=1;" parent="chQNSu7xCShgCPtltvOy-1" vertex="1">
          
          <mxGeometry x="600" y="80" width="120" height="80" as="geometry" />
          
        </mxCell>
        
      </root>
      
    </mxGraphModel>
    
  </diagram>
  <diagram id="bzpfsslASMYhpMGigddS" name="Page-3">
    
    <mxGraphModel dx="1422" dy="761" grid="1" gridSize="10" guides="1" tooltips="1" connect="1" arrows="1" fold="1" page="1" pageScale="1" pageWidth="1920" pageHeight="1200" math="0" shadow="0">
      
      <root>
        
        <mxCell id="g6MWk0P1Ib2BXw7GA0SW-0" />
        
        <mxCell id="g6MWk0P1Ib2BXw7GA0SW-1" parent="g6MWk0P1Ib2BXw7GA0SW-0" />
        
        <mxCell id="udI1AOM0dz0MKd6NGxgb-0" value="" style="edgeStyle=orthogonalEdgeStyle;rounded=0;orthogonalLoop=1;jettySize=auto;html=1;" parent="g6MWk0P1Ib2BXw7GA0SW-1" source="udI1AOM0dz0MKd6NGxgb-1" target="udI1AOM0dz0MKd6NGxgb-3" edge="1">
          
          <mxGeometry relative="1" as="geometry" />
          
        </mxCell>
        
        <mxCell id="udI1AOM0dz0MKd6NGxgb-1" value="用户" style="ellipse;whiteSpace=wrap;html=1;" parent="g6MWk0P1Ib2BXw7GA0SW-1" vertex="1">
          
          <mxGeometry x="80" y="80" width="120" height="80" as="geometry" />
          
        </mxCell>
        
        <mxCell id="udI1AOM0dz0MKd6NGxgb-2" value="" style="edgeStyle=orthogonalEdgeStyle;rounded=0;orthogonalLoop=1;jettySize=auto;html=1;" parent="g6MWk0P1Ib2BXw7GA0SW-1" source="udI1AOM0dz0MKd6NGxgb-3" target="udI1AOM0dz0MKd6NGxgb-4" edge="1">
          
          <mxGeometry relative="1" as="geometry" />
          
        </mxCell>
        
        <mxCell id="udI1AOM0dz0MKd6NGxgb-3" value="角色" style="ellipse;whiteSpace=wrap;html=1;" parent="g6MWk0P1Ib2BXw7GA0SW-1" vertex="1">
          
          <mxGeometry x="280" y="80" width="120" height="80" as="geometry" />
          
        </mxCell>
        
        <mxCell id="udI1AOM0dz0MKd6NGxgb-4" value="" style="ellipse;whiteSpace=wrap;html=1;" parent="g6MWk0P1Ib2BXw7GA0SW-1" vertex="1">
          
          <mxGeometry x="480" y="65" width="210" height="110" as="geometry" />
          
        </mxCell>
        
        <mxCell id="udI1AOM0dz0MKd6NGxgb-5" value="操作" style="ellipse;whiteSpace=wrap;html=1;" parent="g6MWk0P1Ib2BXw7GA0SW-1" vertex="1">
          
          <mxGeometry x="490" y="95" width="80" height="50" as="geometry" />
          
        </mxCell>
        
        <mxCell id="udI1AOM0dz0MKd6NGxgb-6" value="对象" style="ellipse;whiteSpace=wrap;html=1;" parent="g6MWk0P1Ib2BXw7GA0SW-1" vertex="1">
          
          <mxGeometry x="600" y="95" width="80" height="50" as="geometry" />
          
        </mxCell>
        
        <mxCell id="udI1AOM0dz0MKd6NGxgb-7" value="权限" style="text;html=1;align=center;verticalAlign=middle;resizable=0;points=[];autosize=1;" parent="g6MWk0P1Ib2BXw7GA0SW-1" vertex="1">
          
          <mxGeometry x="565" y="75" width="40" height="20" as="geometry" />
          
        </mxCell>
        
      </root>
      
    </mxGraphModel>
    
  </diagram>
  <diagram id="RPm2NLQq9TiY82jRgI4L" name="Page-4">
    
    <mxGraphModel dx="1422" dy="712" grid="1" gridSize="10" guides="1" tooltips="1" connect="1" arrows="1" fold="1" page="1" pageScale="1" pageWidth="1920" pageHeight="1200" math="0" shadow="0">
      
      <root>
        
        <mxCell id="HJw9diDGHiTSo1uB0VOQ-0" />
        
        <mxCell id="HJw9diDGHiTSo1uB0VOQ-1" parent="HJw9diDGHiTSo1uB0VOQ-0" />
        
        <mxCell id="HJw9diDGHiTSo1uB0VOQ-4" value="" style="edgeStyle=orthogonalEdgeStyle;rounded=0;orthogonalLoop=1;jettySize=auto;html=1;" edge="1" parent="HJw9diDGHiTSo1uB0VOQ-1" source="HJw9diDGHiTSo1uB0VOQ-2" target="HJw9diDGHiTSo1uB0VOQ-3">
          
          <mxGeometry relative="1" as="geometry" />
          
        </mxCell>
        
        <mxCell id="HJw9diDGHiTSo1uB0VOQ-2" value="进货单" style="rounded=0;whiteSpace=wrap;html=1;" vertex="1" parent="HJw9diDGHiTSo1uB0VOQ-1">
          
          <mxGeometry x="120" y="160" width="120" height="60" as="geometry" />
          
        </mxCell>
        
        <mxCell id="HJw9diDGHiTSo1uB0VOQ-6" value="" style="edgeStyle=orthogonalEdgeStyle;rounded=0;orthogonalLoop=1;jettySize=auto;html=1;exitX=0;exitY=0.5;exitDx=0;exitDy=0;entryX=0;entryY=0.5;entryDx=0;entryDy=0;" edge="1" parent="HJw9diDGHiTSo1uB0VOQ-1" source="HJw9diDGHiTSo1uB0VOQ-3" target="HJw9diDGHiTSo1uB0VOQ-5">
          
          <mxGeometry relative="1" as="geometry" />
          
        </mxCell>
        
        <mxCell id="HJw9diDGHiTSo1uB0VOQ-8" value="" style="edgeStyle=orthogonalEdgeStyle;rounded=0;orthogonalLoop=1;jettySize=auto;html=1;entryX=-0.008;entryY=0.383;entryDx=0;entryDy=0;entryPerimeter=0;exitX=1;exitY=0.5;exitDx=0;exitDy=0;" edge="1" parent="HJw9diDGHiTSo1uB0VOQ-1" source="HJw9diDGHiTSo1uB0VOQ-3" target="HJw9diDGHiTSo1uB0VOQ-7">
          
          <mxGeometry relative="1" as="geometry" />
          
        </mxCell>
        
        <mxCell id="HJw9diDGHiTSo1uB0VOQ-3" value="仓库数据" style="shape=cylinder;whiteSpace=wrap;html=1;boundedLbl=1;backgroundOutline=1;rounded=0;direction=south;" vertex="1" parent="HJw9diDGHiTSo1uB0VOQ-1">
          
          <mxGeometry x="340" y="160" width="140" height="60" as="geometry" />
          
        </mxCell>
        
        <mxCell id="HJw9diDGHiTSo1uB0VOQ-5" value="进货退货" style="whiteSpace=wrap;html=1;rounded=0;" vertex="1" parent="HJw9diDGHiTSo1uB0VOQ-1">
          
          <mxGeometry x="520" y="80" width="120" height="60" as="geometry" />
          
        </mxCell>
        
        <mxCell id="HJw9diDGHiTSo1uB0VOQ-7" value="付款单" style="whiteSpace=wrap;html=1;rounded=0;" vertex="1" parent="HJw9diDGHiTSo1uB0VOQ-1">
          
          <mxGeometry x="520" y="240" width="120" height="60" as="geometry" />
          
        </mxCell>
        
      </root>
      
    </mxGraphModel>
    
  </diagram>
  <diagram id="54kS9LgMpR4vph_Ea9EH" name="Page-5">
    
    <mxGraphModel dx="1422" dy="712" grid="1" gridSize="10" guides="1" tooltips="1" connect="1" arrows="1" fold="1" page="1" pageScale="1" pageWidth="1920" pageHeight="1200" math="0" shadow="0">
      
      <root>
        
        <mxCell id="Uskq1t2phX1V27pnePt2-0" />
        
        <mxCell id="Uskq1t2phX1V27pnePt2-1" parent="Uskq1t2phX1V27pnePt2-0" />
        
        <mxCell id="wGiZhnP5JODjkrc-XuKQ-0" value="" style="edgeStyle=orthogonalEdgeStyle;rounded=0;orthogonalLoop=1;jettySize=auto;html=1;" edge="1" parent="Uskq1t2phX1V27pnePt2-1" source="wGiZhnP5JODjkrc-XuKQ-1" target="wGiZhnP5JODjkrc-XuKQ-4">
          
          <mxGeometry relative="1" as="geometry" />
          
        </mxCell>
        
        <mxCell id="wGiZhnP5JODjkrc-XuKQ-1" value="销售单" style="rounded=0;whiteSpace=wrap;html=1;" vertex="1" parent="Uskq1t2phX1V27pnePt2-1">
          
          <mxGeometry x="120" y="160" width="120" height="60" as="geometry" />
          
        </mxCell>
        
        <mxCell id="wGiZhnP5JODjkrc-XuKQ-2" value="" style="edgeStyle=orthogonalEdgeStyle;rounded=0;orthogonalLoop=1;jettySize=auto;html=1;exitX=0;exitY=0.5;exitDx=0;exitDy=0;entryX=0;entryY=0.5;entryDx=0;entryDy=0;" edge="1" parent="Uskq1t2phX1V27pnePt2-1" source="wGiZhnP5JODjkrc-XuKQ-4" target="wGiZhnP5JODjkrc-XuKQ-5">
          
          <mxGeometry relative="1" as="geometry" />
          
        </mxCell>
        
        <mxCell id="wGiZhnP5JODjkrc-XuKQ-3" value="" style="edgeStyle=orthogonalEdgeStyle;rounded=0;orthogonalLoop=1;jettySize=auto;html=1;entryX=-0.008;entryY=0.383;entryDx=0;entryDy=0;entryPerimeter=0;exitX=1;exitY=0.5;exitDx=0;exitDy=0;" edge="1" parent="Uskq1t2phX1V27pnePt2-1" source="wGiZhnP5JODjkrc-XuKQ-4" target="wGiZhnP5JODjkrc-XuKQ-6">
          
          <mxGeometry relative="1" as="geometry" />
          
        </mxCell>
        
        <mxCell id="wGiZhnP5JODjkrc-XuKQ-4" value="仓库数据" style="shape=cylinder;whiteSpace=wrap;html=1;boundedLbl=1;backgroundOutline=1;rounded=0;direction=south;" vertex="1" parent="Uskq1t2phX1V27pnePt2-1">
          
          <mxGeometry x="340" y="160" width="140" height="60" as="geometry" />
          
        </mxCell>
        
        <mxCell id="wGiZhnP5JODjkrc-XuKQ-5" value="销售退货" style="whiteSpace=wrap;html=1;rounded=0;" vertex="1" parent="Uskq1t2phX1V27pnePt2-1">
          
          <mxGeometry x="520" y="80" width="120" height="60" as="geometry" />
          
        </mxCell>
        
        <mxCell id="wGiZhnP5JODjkrc-XuKQ-6" value="收款单" style="whiteSpace=wrap;html=1;rounded=0;" vertex="1" parent="Uskq1t2phX1V27pnePt2-1">
          
          <mxGeometry x="520" y="240" width="120" height="60" as="geometry" />
          
        </mxCell>
        
      </root>
      
    </mxGraphModel>
    
  </diagram>
  <diagram id="RTLV1EpN7vQiKuvlozGX" name="Page-6">
    
    <mxGraphModel dx="1422" dy="712" grid="1" gridSize="10" guides="1" tooltips="1" connect="1" arrows="1" fold="1" page="1" pageScale="1" pageWidth="1920" pageHeight="1200" math="0" shadow="0">
      
      <root>
        
        <mxCell id="CWbgUdvYmcko6TUtH-JA-0" />
        
        <mxCell id="CWbgUdvYmcko6TUtH-JA-1" parent="CWbgUdvYmcko6TUtH-JA-0" />
        
        <mxCell id="CWbgUdvYmcko6TUtH-JA-2" value="" style="edgeStyle=orthogonalEdgeStyle;rounded=0;orthogonalLoop=1;jettySize=auto;html=1;" edge="1" parent="CWbgUdvYmcko6TUtH-JA-1" source="CWbgUdvYmcko6TUtH-JA-3" target="CWbgUdvYmcko6TUtH-JA-6">
          
          <mxGeometry relative="1" as="geometry" />
          
        </mxCell>
        
        <mxCell id="CWbgUdvYmcko6TUtH-JA-3" value="进货单" style="rounded=0;whiteSpace=wrap;html=1;" vertex="1" parent="CWbgUdvYmcko6TUtH-JA-1">
          
          <mxGeometry x="120" y="160" width="120" height="60" as="geometry" />
          
        </mxCell>
        
        <mxCell id="CWbgUdvYmcko6TUtH-JA-4" value="" style="edgeStyle=orthogonalEdgeStyle;rounded=0;orthogonalLoop=1;jettySize=auto;html=1;exitX=0;exitY=0.5;exitDx=0;exitDy=0;entryX=0;entryY=0.5;entryDx=0;entryDy=0;" edge="1" parent="CWbgUdvYmcko6TUtH-JA-1" source="CWbgUdvYmcko6TUtH-JA-6" target="CWbgUdvYmcko6TUtH-JA-7">
          
          <mxGeometry relative="1" as="geometry" />
          
        </mxCell>
        
        <mxCell id="CWbgUdvYmcko6TUtH-JA-5" value="" style="edgeStyle=orthogonalEdgeStyle;rounded=0;orthogonalLoop=1;jettySize=auto;html=1;entryX=-0.008;entryY=0.383;entryDx=0;entryDy=0;entryPerimeter=0;exitX=1;exitY=0.5;exitDx=0;exitDy=0;" edge="1" parent="CWbgUdvYmcko6TUtH-JA-1" source="CWbgUdvYmcko6TUtH-JA-6" target="CWbgUdvYmcko6TUtH-JA-8">
          
          <mxGeometry relative="1" as="geometry" />
          
        </mxCell>
        
        <mxCell id="CWbgUdvYmcko6TUtH-JA-6" value="仓库数据" style="shape=cylinder;whiteSpace=wrap;html=1;boundedLbl=1;backgroundOutline=1;rounded=0;direction=south;" vertex="1" parent="CWbgUdvYmcko6TUtH-JA-1">
          
          <mxGeometry x="340" y="160" width="140" height="60" as="geometry" />
          
        </mxCell>
        
        <mxCell id="CWbgUdvYmcko6TUtH-JA-7" value="进货退货" style="whiteSpace=wrap;html=1;rounded=0;" vertex="1" parent="CWbgUdvYmcko6TUtH-JA-1">
          
          <mxGeometry x="520" y="80" width="120" height="60" as="geometry" />
          
        </mxCell>
        
        <mxCell id="CWbgUdvYmcko6TUtH-JA-8" value="付款单" style="whiteSpace=wrap;html=1;rounded=0;" vertex="1" parent="CWbgUdvYmcko6TUtH-JA-1">
          
          <mxGeometry x="520" y="240" width="120" height="60" as="geometry" />
          
        </mxCell>
        
      </root>
      
    </mxGraphModel>
    
  </diagram>
  <diagram id="V9_ECAcnrPAhpw4-EpwV" name="Page-7">
    
    <mxGraphModel dx="1422" dy="712" grid="1" gridSize="10" guides="1" tooltips="1" connect="1" arrows="1" fold="1" page="1" pageScale="1" pageWidth="1920" pageHeight="1200" math="0" shadow="0">
      
      <root>
        
        <mxCell id="TgzauZUY9rHOeN1-SesN-0" />
        
        <mxCell id="TgzauZUY9rHOeN1-SesN-1" parent="TgzauZUY9rHOeN1-SesN-0" />
        
        <mxCell id="TgzauZUY9rHOeN1-SesN-2" value="" style="edgeStyle=orthogonalEdgeStyle;rounded=0;orthogonalLoop=1;jettySize=auto;html=1;" edge="1" parent="TgzauZUY9rHOeN1-SesN-1" source="TgzauZUY9rHOeN1-SesN-3" target="TgzauZUY9rHOeN1-SesN-6">
          
          <mxGeometry relative="1" as="geometry" />
          
        </mxCell>
        
        <mxCell id="TgzauZUY9rHOeN1-SesN-3" value="进货单" style="rounded=0;whiteSpace=wrap;html=1;" vertex="1" parent="TgzauZUY9rHOeN1-SesN-1">
          
          <mxGeometry x="120" y="160" width="120" height="60" as="geometry" />
          
        </mxCell>
        
        <mxCell id="TgzauZUY9rHOeN1-SesN-4" value="" style="edgeStyle=orthogonalEdgeStyle;rounded=0;orthogonalLoop=1;jettySize=auto;html=1;exitX=0;exitY=0.5;exitDx=0;exitDy=0;entryX=0;entryY=0.5;entryDx=0;entryDy=0;" edge="1" parent="TgzauZUY9rHOeN1-SesN-1" source="TgzauZUY9rHOeN1-SesN-6" target="TgzauZUY9rHOeN1-SesN-7">
          
          <mxGeometry relative="1" as="geometry" />
          
        </mxCell>
        
        <mxCell id="TgzauZUY9rHOeN1-SesN-5" value="" style="edgeStyle=orthogonalEdgeStyle;rounded=0;orthogonalLoop=1;jettySize=auto;html=1;entryX=-0.008;entryY=0.383;entryDx=0;entryDy=0;entryPerimeter=0;exitX=1;exitY=0.5;exitDx=0;exitDy=0;" edge="1" parent="TgzauZUY9rHOeN1-SesN-1" source="TgzauZUY9rHOeN1-SesN-6" target="TgzauZUY9rHOeN1-SesN-8">
          
          <mxGeometry relative="1" as="geometry" />
          
        </mxCell>
        
        <mxCell id="TgzauZUY9rHOeN1-SesN-6" value="仓库数据" style="shape=cylinder;whiteSpace=wrap;html=1;boundedLbl=1;backgroundOutline=1;rounded=0;direction=south;" vertex="1" parent="TgzauZUY9rHOeN1-SesN-1">
          
          <mxGeometry x="340" y="160" width="140" height="60" as="geometry" />
          
        </mxCell>
        
        <mxCell id="TgzauZUY9rHOeN1-SesN-7" value="进货退货" style="whiteSpace=wrap;html=1;rounded=0;" vertex="1" parent="TgzauZUY9rHOeN1-SesN-1">
          
          <mxGeometry x="520" y="80" width="120" height="60" as="geometry" />
          
        </mxCell>
        
        <mxCell id="TgzauZUY9rHOeN1-SesN-8" value="付款单" style="whiteSpace=wrap;html=1;rounded=0;" vertex="1" parent="TgzauZUY9rHOeN1-SesN-1">
          
          <mxGeometry x="520" y="240" width="120" height="60" as="geometry" />
          
        </mxCell>
        
      </root>
      
    </mxGraphModel>
    
  </diagram>
  <diagram id="OuyJN7TYmX32PE2I-qnB" name="Page-8">
    
    <mxGraphModel dx="1422" dy="712" grid="1" gridSize="10" guides="1" tooltips="1" connect="1" arrows="1" fold="1" page="1" pageScale="1" pageWidth="1920" pageHeight="1200" math="0" shadow="0">
      
      <root>
        
        <mxCell id="j-0yvsG8cNtESgCgaO8e-0" />
        
        <mxCell id="j-0yvsG8cNtESgCgaO8e-1" parent="j-0yvsG8cNtESgCgaO8e-0" />
        
        <mxCell id="HKUQAAers-AIQGUzLApT-0" value="" style="edgeStyle=orthogonalEdgeStyle;rounded=0;orthogonalLoop=1;jettySize=auto;html=1;startArrow=classic;startFill=1;endArrow=none;endFill=0;" edge="1" parent="j-0yvsG8cNtESgCgaO8e-1" source="HKUQAAers-AIQGUzLApT-1" target="HKUQAAers-AIQGUzLApT-4">
          
          <mxGeometry relative="1" as="geometry" />
          
        </mxCell>
        
        <mxCell id="HKUQAAers-AIQGUzLApT-1" value="销售单" style="rounded=0;whiteSpace=wrap;html=1;" vertex="1" parent="j-0yvsG8cNtESgCgaO8e-1">
          
          <mxGeometry x="120" y="160" width="120" height="60" as="geometry" />
          
        </mxCell>
        
        <mxCell id="HKUQAAers-AIQGUzLApT-2" value="" style="edgeStyle=orthogonalEdgeStyle;rounded=0;orthogonalLoop=1;jettySize=auto;html=1;exitX=0;exitY=0.5;exitDx=0;exitDy=0;entryX=0;entryY=0.5;entryDx=0;entryDy=0;startArrow=classic;startFill=1;endArrow=none;endFill=0;" edge="1" parent="j-0yvsG8cNtESgCgaO8e-1" source="HKUQAAers-AIQGUzLApT-4" target="HKUQAAers-AIQGUzLApT-5">
          
          <mxGeometry relative="1" as="geometry" />
          
        </mxCell>
        
        <mxCell id="HKUQAAers-AIQGUzLApT-3" value="" style="edgeStyle=orthogonalEdgeStyle;rounded=0;orthogonalLoop=1;jettySize=auto;html=1;entryX=-0.008;entryY=0.383;entryDx=0;entryDy=0;entryPerimeter=0;exitX=1;exitY=0.5;exitDx=0;exitDy=0;startArrow=classic;startFill=1;endArrow=none;endFill=0;" edge="1" parent="j-0yvsG8cNtESgCgaO8e-1" source="HKUQAAers-AIQGUzLApT-4" target="HKUQAAers-AIQGUzLApT-6">
          
          <mxGeometry relative="1" as="geometry" />
          
        </mxCell>
        
        <mxCell id="HKUQAAers-AIQGUzLApT-4" value="仓库数据" style="shape=cylinder;whiteSpace=wrap;html=1;boundedLbl=1;backgroundOutline=1;rounded=0;direction=south;" vertex="1" parent="j-0yvsG8cNtESgCgaO8e-1">
          
          <mxGeometry x="340" y="160" width="140" height="60" as="geometry" />
          
        </mxCell>
        
        <mxCell id="HKUQAAers-AIQGUzLApT-5" value="销售退货" style="whiteSpace=wrap;html=1;rounded=0;" vertex="1" parent="j-0yvsG8cNtESgCgaO8e-1">
          
          <mxGeometry x="520" y="80" width="120" height="60" as="geometry" />
          
        </mxCell>
        
        <mxCell id="HKUQAAers-AIQGUzLApT-6" value="收款单" style="whiteSpace=wrap;html=1;rounded=0;" vertex="1" parent="j-0yvsG8cNtESgCgaO8e-1">
          
          <mxGeometry x="520" y="240" width="120" height="60" as="geometry" />
          
        </mxCell>
        
      </root>
      
    </mxGraphModel>
    
  </diagram>
  <diagram id="fOJitCwq8mnnTB8BRZpS" name="Page-9">
    
    <mxGraphModel dx="1422" dy="712" grid="1" gridSize="10" guides="1" tooltips="1" connect="1" arrows="1" fold="1" page="1" pageScale="1" pageWidth="1920" pageHeight="1200" math="0" shadow="0">
      
      <root>
        
        <mxCell id="T5D154CPkYqFu7Ag23jj-0" />
        
        <mxCell id="T5D154CPkYqFu7Ag23jj-1" parent="T5D154CPkYqFu7Ag23jj-0" />
        
        <mxCell id="T5D154CPkYqFu7Ag23jj-7" value="" style="edgeStyle=orthogonalEdgeStyle;rounded=0;orthogonalLoop=1;jettySize=auto;html=1;startArrow=none;startFill=0;endArrow=classic;endFill=1;" edge="1" parent="T5D154CPkYqFu7Ag23jj-1" source="T5D154CPkYqFu7Ag23jj-2" target="T5D154CPkYqFu7Ag23jj-6">
          
          <mxGeometry relative="1" as="geometry" />
          
        </mxCell>
        
        <mxCell id="T5D154CPkYqFu7Ag23jj-2" value="身份者验证" style="ellipse;whiteSpace=wrap;html=1;" vertex="1" parent="T5D154CPkYqFu7Ag23jj-1">
          
          <mxGeometry x="170" y="150" width="120" height="80" as="geometry" />
          
        </mxCell>
        
        <mxCell id="T5D154CPkYqFu7Ag23jj-9" value="" style="edgeStyle=orthogonalEdgeStyle;rounded=0;orthogonalLoop=1;jettySize=auto;html=1;startArrow=none;startFill=0;endArrow=classic;endFill=1;exitX=0.5;exitY=0;exitDx=0;exitDy=0;entryX=0;entryY=0.5;entryDx=0;entryDy=0;" edge="1" parent="T5D154CPkYqFu7Ag23jj-1" source="T5D154CPkYqFu7Ag23jj-6" target="T5D154CPkYqFu7Ag23jj-8">
          
          <mxGeometry relative="1" as="geometry" />
          
        </mxCell>
        
        <mxCell id="T5D154CPkYqFu7Ag23jj-11" value="" style="edgeStyle=orthogonalEdgeStyle;rounded=0;orthogonalLoop=1;jettySize=auto;html=1;startArrow=none;startFill=0;endArrow=classic;endFill=1;entryX=0;entryY=0.5;entryDx=0;entryDy=0;exitX=0.5;exitY=1;exitDx=0;exitDy=0;" edge="1" parent="T5D154CPkYqFu7Ag23jj-1" source="T5D154CPkYqFu7Ag23jj-6" target="T5D154CPkYqFu7Ag23jj-10">
          
          <mxGeometry relative="1" as="geometry" />
          
        </mxCell>
        
        <mxCell id="T5D154CPkYqFu7Ag23jj-6" value="投票" style="ellipse;whiteSpace=wrap;html=1;" vertex="1" parent="T5D154CPkYqFu7Ag23jj-1">
          
          <mxGeometry x="370" y="150" width="120" height="80" as="geometry" />
          
        </mxCell>
        
        <mxCell id="T5D154CPkYqFu7Ag23jj-8" value="查看投票结果" style="ellipse;whiteSpace=wrap;html=1;" vertex="1" parent="T5D154CPkYqFu7Ag23jj-1">
          
          <mxGeometry x="520" y="60" width="120" height="80" as="geometry" />
          
        </mxCell>
        
        <mxCell id="T5D154CPkYqFu7Ag23jj-10" value="查看投票统计结果" style="ellipse;whiteSpace=wrap;html=1;" vertex="1" parent="T5D154CPkYqFu7Ag23jj-1">
          
          <mxGeometry x="520" y="240" width="120" height="80" as="geometry" />
          
        </mxCell>
        
      </root>
      
    </mxGraphModel>
    
  </diagram>
  <diagram id="GLxO4c4cFz8qJaIMyLKs" name="Page-10">
    
    <mxGraphModel dx="1422" dy="761" grid="1" gridSize="10" guides="1" tooltips="1" connect="1" arrows="1" fold="1" page="1" pageScale="1" pageWidth="1920" pageHeight="1200" math="0" shadow="0">
      
      <root>
        
        <mxCell id="VqHim-31s8dKLE_yyS20-0" />
        
        <mxCell id="VqHim-31s8dKLE_yyS20-1" parent="VqHim-31s8dKLE_yyS20-0" />
        
        <mxCell id="VqHim-31s8dKLE_yyS20-4" value="" style="edgeStyle=orthogonalEdgeStyle;rounded=0;orthogonalLoop=1;jettySize=auto;html=1;" edge="1" parent="VqHim-31s8dKLE_yyS20-1" source="VqHim-31s8dKLE_yyS20-2" target="VqHim-31s8dKLE_yyS20-3">
          
          <mxGeometry relative="1" as="geometry" />
          
        </mxCell>
        
        <mxCell id="VqHim-31s8dKLE_yyS20-2" value="广告展示" style="ellipse;whiteSpace=wrap;html=1;" vertex="1" parent="VqHim-31s8dKLE_yyS20-1">
          
          <mxGeometry x="130" y="160" width="120" height="80" as="geometry" />
          
        </mxCell>
        
        <mxCell id="VqHim-31s8dKLE_yyS20-8" value="" style="edgeStyle=orthogonalEdgeStyle;rounded=0;orthogonalLoop=1;jettySize=auto;html=1;" edge="1" parent="VqHim-31s8dKLE_yyS20-1" source="VqHim-31s8dKLE_yyS20-3" target="VqHim-31s8dKLE_yyS20-7">
          
          <mxGeometry relative="1" as="geometry" />
          
        </mxCell>
        
        <mxCell id="VqHim-31s8dKLE_yyS20-3" value="广告投放" style="ellipse;whiteSpace=wrap;html=1;" vertex="1" parent="VqHim-31s8dKLE_yyS20-1">
          
          <mxGeometry x="330" y="160" width="120" height="80" as="geometry" />
          
        </mxCell>
        
        <mxCell id="VqHim-31s8dKLE_yyS20-7" value="广告点击统计" style="ellipse;whiteSpace=wrap;html=1;" vertex="1" parent="VqHim-31s8dKLE_yyS20-1">
          
          <mxGeometry x="530" y="160" width="120" height="80" as="geometry" />
          
        </mxCell>
        
      </root>
      
    </mxGraphModel>
    
  </diagram>
  <diagram id="uUBsV4G_jgNXeGtN2wDW" name="Page-11">
    
    <mxGraphModel dx="1422" dy="761" grid="1" gridSize="10" guides="1" tooltips="1" connect="1" arrows="1" fold="1" page="1" pageScale="1" pageWidth="1920" pageHeight="1200" math="0" shadow="0">
      
      <root>
        
        <mxCell id="_h5wJpCACj46efRpuC9h-0" />
        
        <mxCell id="_h5wJpCACj46efRpuC9h-1" parent="_h5wJpCACj46efRpuC9h-0" />
        
        <mxCell id="_h5wJpCACj46efRpuC9h-5" value="" style="edgeStyle=orthogonalEdgeStyle;rounded=0;orthogonalLoop=1;jettySize=auto;html=1;entryX=0;entryY=0.5;entryDx=0;entryDy=0;exitX=1;exitY=0.5;exitDx=0;exitDy=0;" edge="1" parent="_h5wJpCACj46efRpuC9h-1" source="_h5wJpCACj46efRpuC9h-2" target="_h5wJpCACj46efRpuC9h-4">
          
          <mxGeometry relative="1" as="geometry">
            
            <Array as="points">
              
              <mxPoint x="600" y="410" />
              
              <mxPoint x="600" y="150" />
              
            </Array>
            
          </mxGeometry>
          
        </mxCell>
        
        <mxCell id="_h5wJpCACj46efRpuC9h-20" value="" style="edgeStyle=orthogonalEdgeStyle;rounded=0;orthogonalLoop=1;jettySize=auto;html=1;entryX=0;entryY=0.5;entryDx=0;entryDy=0;" edge="1" parent="_h5wJpCACj46efRpuC9h-1" source="_h5wJpCACj46efRpuC9h-2" target="_h5wJpCACj46efRpuC9h-19">
          
          <mxGeometry relative="1" as="geometry">
            
            <Array as="points">
              
              <mxPoint x="600" y="410" />
              
              <mxPoint x="600" y="280" />
              
            </Array>
            
          </mxGeometry>
          
        </mxCell>
        
        <mxCell id="_h5wJpCACj46efRpuC9h-22" value="" style="edgeStyle=orthogonalEdgeStyle;rounded=0;orthogonalLoop=1;jettySize=auto;html=1;entryX=0;entryY=0.5;entryDx=0;entryDy=0;exitX=1;exitY=0.5;exitDx=0;exitDy=0;" edge="1" parent="_h5wJpCACj46efRpuC9h-1" source="_h5wJpCACj46efRpuC9h-2" target="_h5wJpCACj46efRpuC9h-21">
          
          <mxGeometry relative="1" as="geometry">
            
            <Array as="points">
              
              <mxPoint x="580" y="410" />
              
              <mxPoint x="580" y="410" />
              
            </Array>
            
          </mxGeometry>
          
        </mxCell>
        
        <mxCell id="_h5wJpCACj46efRpuC9h-2" value="内容" style="ellipse;whiteSpace=wrap;html=1;" vertex="1" parent="_h5wJpCACj46efRpuC9h-1">
          
          <mxGeometry x="420" y="370" width="120" height="80" as="geometry" />
          
        </mxCell>
        
        <mxCell id="_h5wJpCACj46efRpuC9h-9" value="" style="edgeStyle=orthogonalEdgeStyle;rounded=0;orthogonalLoop=1;jettySize=auto;html=1;" edge="1" parent="_h5wJpCACj46efRpuC9h-1" source="_h5wJpCACj46efRpuC9h-4" target="_h5wJpCACj46efRpuC9h-8">
          
          <mxGeometry relative="1" as="geometry" />
          
        </mxCell>
        
        <mxCell id="_h5wJpCACj46efRpuC9h-4" value="内容模板" style="ellipse;whiteSpace=wrap;html=1;" vertex="1" parent="_h5wJpCACj46efRpuC9h-1">
          
          <mxGeometry x="650" y="110" width="120" height="80" as="geometry" />
          
        </mxCell>
        
        <mxCell id="_h5wJpCACj46efRpuC9h-8" value="内容模板样式" style="ellipse;whiteSpace=wrap;html=1;" vertex="1" parent="_h5wJpCACj46efRpuC9h-1">
          
          <mxGeometry x="860" y="110" width="120" height="80" as="geometry" />
          
        </mxCell>
        
        <mxCell id="_h5wJpCACj46efRpuC9h-19" value="内容分类" style="ellipse;whiteSpace=wrap;html=1;" vertex="1" parent="_h5wJpCACj46efRpuC9h-1">
          
          <mxGeometry x="650" y="240" width="120" height="80" as="geometry" />
          
        </mxCell>
        
        <mxCell id="_h5wJpCACj46efRpuC9h-31" value="" style="edgeStyle=orthogonalEdgeStyle;rounded=0;orthogonalLoop=1;jettySize=auto;html=1;" edge="1" parent="_h5wJpCACj46efRpuC9h-1" source="_h5wJpCACj46efRpuC9h-21" target="_h5wJpCACj46efRpuC9h-30">
          
          <mxGeometry relative="1" as="geometry" />
          
        </mxCell>
        
        <mxCell id="_h5wJpCACj46efRpuC9h-21" value="内容标签" style="ellipse;whiteSpace=wrap;html=1;" vertex="1" parent="_h5wJpCACj46efRpuC9h-1">
          
          <mxGeometry x="650" y="370" width="120" height="80" as="geometry" />
          
        </mxCell>
        
        <mxCell id="_h5wJpCACj46efRpuC9h-26" value="" style="edgeStyle=orthogonalEdgeStyle;rounded=0;orthogonalLoop=1;jettySize=auto;html=1;exitX=1;exitY=0.5;exitDx=0;exitDy=0;" edge="1" parent="_h5wJpCACj46efRpuC9h-1" source="_h5wJpCACj46efRpuC9h-2" target="_h5wJpCACj46efRpuC9h-25">
          
          <mxGeometry relative="1" as="geometry">
            
            <Array as="points">
              
              <mxPoint x="600" y="410" />
              
              <mxPoint x="600" y="670" />
              
            </Array>
            
          </mxGeometry>
          
        </mxCell>
        
        <mxCell id="_h5wJpCACj46efRpuC9h-29" value="" style="edgeStyle=orthogonalEdgeStyle;rounded=0;orthogonalLoop=1;jettySize=auto;html=1;entryX=0;entryY=0.5;entryDx=0;entryDy=0;exitX=1;exitY=0.5;exitDx=0;exitDy=0;" edge="1" parent="_h5wJpCACj46efRpuC9h-1" source="_h5wJpCACj46efRpuC9h-2" target="_h5wJpCACj46efRpuC9h-23">
          
          <mxGeometry relative="1" as="geometry">
            
            <Array as="points">
              
              <mxPoint x="600" y="410" />
              
              <mxPoint x="600" y="540" />
              
            </Array>
            
          </mxGeometry>
          
        </mxCell>
        
        <mxCell id="_h5wJpCACj46efRpuC9h-23" value="分词&amp;amp;索引" style="ellipse;whiteSpace=wrap;html=1;" vertex="1" parent="_h5wJpCACj46efRpuC9h-1">
          
          <mxGeometry x="650" y="500" width="120" height="80" as="geometry" />
          
        </mxCell>
        
        <mxCell id="_h5wJpCACj46efRpuC9h-28" value="" style="edgeStyle=orthogonalEdgeStyle;rounded=0;orthogonalLoop=1;jettySize=auto;html=1;" edge="1" parent="_h5wJpCACj46efRpuC9h-1" source="_h5wJpCACj46efRpuC9h-25" target="_h5wJpCACj46efRpuC9h-27">
          
          <mxGeometry relative="1" as="geometry" />
          
        </mxCell>
        
        <mxCell id="_h5wJpCACj46efRpuC9h-25" value="发布" style="ellipse;whiteSpace=wrap;html=1;" vertex="1" parent="_h5wJpCACj46efRpuC9h-1">
          
          <mxGeometry x="650" y="630" width="120" height="80" as="geometry" />
          
        </mxCell>
        
        <mxCell id="_h5wJpCACj46efRpuC9h-33" value="" style="edgeStyle=orthogonalEdgeStyle;rounded=0;orthogonalLoop=1;jettySize=auto;html=1;" edge="1" parent="_h5wJpCACj46efRpuC9h-1" source="_h5wJpCACj46efRpuC9h-27" target="_h5wJpCACj46efRpuC9h-32">
          
          <mxGeometry relative="1" as="geometry" />
          
        </mxCell>
        
        <mxCell id="_h5wJpCACj46efRpuC9h-27" value="静态化" style="ellipse;whiteSpace=wrap;html=1;" vertex="1" parent="_h5wJpCACj46efRpuC9h-1">
          
          <mxGeometry x="850" y="630" width="120" height="80" as="geometry" />
          
        </mxCell>
        
        <mxCell id="_h5wJpCACj46efRpuC9h-30" value="近似度分析" style="ellipse;whiteSpace=wrap;html=1;" vertex="1" parent="_h5wJpCACj46efRpuC9h-1">
          
          <mxGeometry x="860" y="370" width="120" height="80" as="geometry" />
          
        </mxCell>
        
        <mxCell id="_h5wJpCACj46efRpuC9h-32" value="模板引擎" style="ellipse;whiteSpace=wrap;html=1;" vertex="1" parent="_h5wJpCACj46efRpuC9h-1">
          
          <mxGeometry x="850" y="750" width="120" height="80" as="geometry" />
          
        </mxCell>
        
      </root>
      
    </mxGraphModel>
    
  </diagram>
  <diagram id="tHs1JE7ZWsa-2A8Mu6id" name="Page-12">
    
    <mxGraphModel dx="1422" dy="761" grid="1" gridSize="10" guides="1" tooltips="1" connect="1" arrows="1" fold="1" page="1" pageScale="1" pageWidth="1920" pageHeight="1200" math="0" shadow="0">
      
      <root>
        
        <mxCell id="Ndb6mpR1PoTrB07pHGTi-0" />
        
        <mxCell id="Ndb6mpR1PoTrB07pHGTi-1" parent="Ndb6mpR1PoTrB07pHGTi-0" />
        
        <mxCell id="Ndb6mpR1PoTrB07pHGTi-4" value="" style="edgeStyle=orthogonalEdgeStyle;rounded=0;orthogonalLoop=1;jettySize=auto;html=1;entryX=0;entryY=0.5;entryDx=0;entryDy=0;" edge="1" parent="Ndb6mpR1PoTrB07pHGTi-1" source="Ndb6mpR1PoTrB07pHGTi-2" target="Ndb6mpR1PoTrB07pHGTi-3">
          
          <mxGeometry relative="1" as="geometry" />
          
        </mxCell>
        
        <mxCell id="Ndb6mpR1PoTrB07pHGTi-2" value="企业人事专员" style="rounded=0;whiteSpace=wrap;html=1;" vertex="1" parent="Ndb6mpR1PoTrB07pHGTi-1">
          
          <mxGeometry x="160" y="200" width="120" height="60" as="geometry" />
          
        </mxCell>
        
        <mxCell id="Ndb6mpR1PoTrB07pHGTi-6" value="" style="edgeStyle=orthogonalEdgeStyle;rounded=0;orthogonalLoop=1;jettySize=auto;html=1;" edge="1" parent="Ndb6mpR1PoTrB07pHGTi-1" source="Ndb6mpR1PoTrB07pHGTi-3" target="Ndb6mpR1PoTrB07pHGTi-5">
          
          <mxGeometry relative="1" as="geometry" />
          
        </mxCell>
        
        <mxCell id="Ndb6mpR1PoTrB07pHGTi-10" value="" style="edgeStyle=orthogonalEdgeStyle;rounded=0;orthogonalLoop=1;jettySize=auto;html=1;exitX=1;exitY=0.5;exitDx=0;exitDy=0;entryX=0;entryY=0.5;entryDx=0;entryDy=0;" edge="1" parent="Ndb6mpR1PoTrB07pHGTi-1" source="Ndb6mpR1PoTrB07pHGTi-2" target="Ndb6mpR1PoTrB07pHGTi-9">
          
          <mxGeometry relative="1" as="geometry" />
          
        </mxCell>
        
        <mxCell id="Ndb6mpR1PoTrB07pHGTi-3" value="招聘岗位" style="rounded=0;whiteSpace=wrap;html=1;" vertex="1" parent="Ndb6mpR1PoTrB07pHGTi-1">
          
          <mxGeometry x="360" y="130" width="120" height="60" as="geometry" />
          
        </mxCell>
        
        <mxCell id="Ndb6mpR1PoTrB07pHGTi-5" value="招聘平台" style="rounded=0;whiteSpace=wrap;html=1;" vertex="1" parent="Ndb6mpR1PoTrB07pHGTi-1">
          
          <mxGeometry x="560" y="130" width="120" height="60" as="geometry" />
          
        </mxCell>
        
        <mxCell id="Ndb6mpR1PoTrB07pHGTi-7" value="拟定" style="text;html=1;align=center;verticalAlign=middle;resizable=0;points=[];autosize=1;" vertex="1" parent="Ndb6mpR1PoTrB07pHGTi-1">
          
          <mxGeometry x="310" y="140" width="40" height="20" as="geometry" />
          
        </mxCell>
        
        <mxCell id="Ndb6mpR1PoTrB07pHGTi-8" value="发布" style="text;html=1;align=center;verticalAlign=middle;resizable=0;points=[];autosize=1;" vertex="1" parent="Ndb6mpR1PoTrB07pHGTi-1">
          
          <mxGeometry x="500" y="130" width="40" height="20" as="geometry" />
          
        </mxCell>
        
        <mxCell id="Ndb6mpR1PoTrB07pHGTi-12" value="" style="edgeStyle=orthogonalEdgeStyle;rounded=0;orthogonalLoop=1;jettySize=auto;html=1;" edge="1" parent="Ndb6mpR1PoTrB07pHGTi-1" source="Ndb6mpR1PoTrB07pHGTi-9" target="Ndb6mpR1PoTrB07pHGTi-5">
          
          <mxGeometry relative="1" as="geometry">
            
            <mxPoint x="560" y="300" as="targetPoint" />
            
          </mxGeometry>
          
        </mxCell>
        
        <mxCell id="Ndb6mpR1PoTrB07pHGTi-9" value="首轮岗位&lt;br&gt;面试题" style="rounded=0;whiteSpace=wrap;html=1;" vertex="1" parent="Ndb6mpR1PoTrB07pHGTi-1">
          
          <mxGeometry x="360" y="270" width="120" height="60" as="geometry" />
          
        </mxCell>
        
        <mxCell id="Ndb6mpR1PoTrB07pHGTi-13" value="准备多套" style="text;html=1;align=center;verticalAlign=middle;resizable=0;points=[];autosize=1;" vertex="1" parent="Ndb6mpR1PoTrB07pHGTi-1">
          
          <mxGeometry x="300" y="310" width="60" height="20" as="geometry" />
          
        </mxCell>
        
        <mxCell id="Ndb6mpR1PoTrB07pHGTi-15" value="提交" style="text;html=1;strokeColor=none;fillColor=none;align=center;verticalAlign=middle;whiteSpace=wrap;rounded=0;" vertex="1" parent="Ndb6mpR1PoTrB07pHGTi-1">
          
          <mxGeometry x="530" y="270" width="40" height="20" as="geometry" />
          
        </mxCell>
        
      </root>
      
    </mxGraphModel>
    
  </diagram>
  <diagram id="bZsIxs96zYlCyqtNpyEi" name="Page-13">
    <mxGraphModel dx="1422" dy="761" grid="1" gridSize="10" guides="1" tooltips="1" connect="1" arrows="1" fold="1" page="1" pageScale="1" pageWidth="1920" pageHeight="1200" math="0" shadow="0">
      <root>
        <mxCell id="GP9XzFfcujGPxNU3OBFs-0" />
        <mxCell id="GP9XzFfcujGPxNU3OBFs-1" parent="GP9XzFfcujGPxNU3OBFs-0" />
        <mxCell id="GP9XzFfcujGPxNU3OBFs-4" value="" style="edgeStyle=orthogonalEdgeStyle;rounded=0;orthogonalLoop=1;jettySize=auto;html=1;" parent="GP9XzFfcujGPxNU3OBFs-1" source="GP9XzFfcujGPxNU3OBFs-2" target="GP9XzFfcujGPxNU3OBFs-3" edge="1">
          <mxGeometry relative="1" as="geometry" />
        </mxCell>
        <mxCell id="GP9XzFfcujGPxNU3OBFs-2" value="求职者" style="rounded=0;whiteSpace=wrap;html=1;" parent="GP9XzFfcujGPxNU3OBFs-1" vertex="1">
          <mxGeometry x="130" y="120" width="120" height="60" as="geometry" />
        </mxCell>
        <mxCell id="GP9XzFfcujGPxNU3OBFs-6" value="" style="edgeStyle=orthogonalEdgeStyle;rounded=0;orthogonalLoop=1;jettySize=auto;html=1;" parent="GP9XzFfcujGPxNU3OBFs-1" source="GP9XzFfcujGPxNU3OBFs-3" target="GP9XzFfcujGPxNU3OBFs-5" edge="1">
          <mxGeometry relative="1" as="geometry" />
        </mxCell>
        <mxCell id="GP9XzFfcujGPxNU3OBFs-3" value="招聘平台" style="rounded=0;whiteSpace=wrap;html=1;" parent="GP9XzFfcujGPxNU3OBFs-1" vertex="1">
          <mxGeometry x="450" y="120" width="120" height="60" as="geometry" />
        </mxCell>
        <mxCell id="GP9XzFfcujGPxNU3OBFs-8" value="" style="edgeStyle=orthogonalEdgeStyle;rounded=0;orthogonalLoop=1;jettySize=auto;html=1;" parent="GP9XzFfcujGPxNU3OBFs-1" source="GP9XzFfcujGPxNU3OBFs-5" target="GP9XzFfcujGPxNU3OBFs-7" edge="1">
          <mxGeometry relative="1" as="geometry" />
        </mxCell>
        <mxCell id="GP9XzFfcujGPxNU3OBFs-5" value="匹配求职者与&lt;br&gt;招聘岗位" style="rounded=0;whiteSpace=wrap;html=1;" parent="GP9XzFfcujGPxNU3OBFs-1" vertex="1">
          <mxGeometry x="450" y="290" width="120" height="60" as="geometry" />
        </mxCell>
        <mxCell id="GP9XzFfcujGPxNU3OBFs-11" value="" style="edgeStyle=orthogonalEdgeStyle;rounded=0;orthogonalLoop=1;jettySize=auto;html=1;" parent="GP9XzFfcujGPxNU3OBFs-1" source="GP9XzFfcujGPxNU3OBFs-7" target="GP9XzFfcujGPxNU3OBFs-2" edge="1">
          <mxGeometry relative="1" as="geometry" />
        </mxCell>
        <mxCell id="GP9XzFfcujGPxNU3OBFs-7" value="招聘专员审核" style="rounded=0;whiteSpace=wrap;html=1;" parent="GP9XzFfcujGPxNU3OBFs-1" vertex="1">
          <mxGeometry x="130" y="290" width="120" height="60" as="geometry" />
        </mxCell>
        <mxCell id="GP9XzFfcujGPxNU3OBFs-12" value="提交简历" style="text;html=1;strokeColor=none;fillColor=none;align=center;verticalAlign=middle;whiteSpace=wrap;rounded=0;" parent="GP9XzFfcujGPxNU3OBFs-1" vertex="1">
          <mxGeometry x="320" y="130" width="60" height="20" as="geometry" />
        </mxCell>
        <mxCell id="GP9XzFfcujGPxNU3OBFs-13" value="推荐合适简历给人事专员" style="text;html=1;strokeColor=none;fillColor=none;align=center;verticalAlign=middle;whiteSpace=wrap;rounded=0;" parent="GP9XzFfcujGPxNU3OBFs-1" vertex="1">
          <mxGeometry x="275" y="290" width="150" height="20" as="geometry" />
        </mxCell>
        <mxCell id="GP9XzFfcujGPxNU3OBFs-14" value="邀请求职者在线参加首轮面试" style="text;html=1;strokeColor=none;fillColor=none;align=center;verticalAlign=middle;whiteSpace=wrap;rounded=0;" parent="GP9XzFfcujGPxNU3OBFs-1" vertex="1">
          <mxGeometry x="190" y="230" width="170" height="20" as="geometry" />
        </mxCell>
      </root>
    </mxGraphModel>
  </diagram>
  <diagram id="3qB2mzlBjaELZ0N1vLXE" name="Page-14">
    
    <mxGraphModel dx="1422" dy="712" grid="1" gridSize="10" guides="1" tooltips="1" connect="1" arrows="1" fold="1" page="1" pageScale="1" pageWidth="1920" pageHeight="1200" math="0" shadow="0">
      
      <root>
        
        <mxCell id="jO12kTMyHGwo6d7ba0NQ-0" />
        
        <mxCell id="jO12kTMyHGwo6d7ba0NQ-1" parent="jO12kTMyHGwo6d7ba0NQ-0" />
        
        <mxCell id="jO12kTMyHGwo6d7ba0NQ-4" value="" style="edgeStyle=orthogonalEdgeStyle;rounded=0;orthogonalLoop=1;jettySize=auto;html=1;" edge="1" parent="jO12kTMyHGwo6d7ba0NQ-1" source="jO12kTMyHGwo6d7ba0NQ-2" target="jO12kTMyHGwo6d7ba0NQ-3">
          
          <mxGeometry relative="1" as="geometry" />
          
        </mxCell>
        
        <mxCell id="jO12kTMyHGwo6d7ba0NQ-2" value="求职者" style="rounded=0;whiteSpace=wrap;html=1;" vertex="1" parent="jO12kTMyHGwo6d7ba0NQ-1">
          
          <mxGeometry x="200" y="130" width="120" height="60" as="geometry" />
          
        </mxCell>
        
        <mxCell id="jO12kTMyHGwo6d7ba0NQ-6" value="" style="edgeStyle=orthogonalEdgeStyle;rounded=0;orthogonalLoop=1;jettySize=auto;html=1;" edge="1" parent="jO12kTMyHGwo6d7ba0NQ-1" source="jO12kTMyHGwo6d7ba0NQ-3" target="jO12kTMyHGwo6d7ba0NQ-5">
          
          <mxGeometry relative="1" as="geometry" />
          
        </mxCell>
        
        <mxCell id="jO12kTMyHGwo6d7ba0NQ-3" value="在线面试系统" style="rounded=0;whiteSpace=wrap;html=1;" vertex="1" parent="jO12kTMyHGwo6d7ba0NQ-1">
          
          <mxGeometry x="520" y="130" width="120" height="60" as="geometry" />
          
        </mxCell>
        
        <mxCell id="jO12kTMyHGwo6d7ba0NQ-8" value="" style="edgeStyle=orthogonalEdgeStyle;rounded=0;orthogonalLoop=1;jettySize=auto;html=1;" edge="1" parent="jO12kTMyHGwo6d7ba0NQ-1" source="jO12kTMyHGwo6d7ba0NQ-5" target="jO12kTMyHGwo6d7ba0NQ-7">
          
          <mxGeometry relative="1" as="geometry" />
          
        </mxCell>
        
        <mxCell id="jO12kTMyHGwo6d7ba0NQ-5" value="调集面试题" style="rounded=0;whiteSpace=wrap;html=1;" vertex="1" parent="jO12kTMyHGwo6d7ba0NQ-1">
          
          <mxGeometry x="520" y="310" width="120" height="60" as="geometry" />
          
        </mxCell>
        
        <mxCell id="jO12kTMyHGwo6d7ba0NQ-9" value="" style="edgeStyle=orthogonalEdgeStyle;rounded=0;orthogonalLoop=1;jettySize=auto;html=1;" edge="1" parent="jO12kTMyHGwo6d7ba0NQ-1" source="jO12kTMyHGwo6d7ba0NQ-7" target="jO12kTMyHGwo6d7ba0NQ-2">
          
          <mxGeometry relative="1" as="geometry" />
          
        </mxCell>
        
        <mxCell id="jO12kTMyHGwo6d7ba0NQ-7" value="生成面试代理" style="rounded=0;whiteSpace=wrap;html=1;" vertex="1" parent="jO12kTMyHGwo6d7ba0NQ-1">
          
          <mxGeometry x="200" y="310" width="120" height="60" as="geometry" />
          
        </mxCell>
        
        <mxCell id="jO12kTMyHGwo6d7ba0NQ-12" value="面试代理对面试者面试" style="text;html=1;strokeColor=none;fillColor=none;align=center;verticalAlign=middle;whiteSpace=wrap;rounded=0;" vertex="1" parent="jO12kTMyHGwo6d7ba0NQ-1">
          
          <mxGeometry x="270" y="240" width="140" height="20" as="geometry" />
          
        </mxCell>
        
        <mxCell id="jO12kTMyHGwo6d7ba0NQ-13" value="登录" style="text;html=1;strokeColor=none;fillColor=none;align=center;verticalAlign=middle;whiteSpace=wrap;rounded=0;" vertex="1" parent="jO12kTMyHGwo6d7ba0NQ-1">
          
          <mxGeometry x="390" y="130" width="40" height="20" as="geometry" />
          
        </mxCell>
        
      </root>
      
    </mxGraphModel>
    
  </diagram>
  <diagram id="vb0PYThhJG7dlNdlpKKd" name="Page-15">
    
    <mxGraphModel dx="1422" dy="761" grid="1" gridSize="10" guides="1" tooltips="1" connect="1" arrows="1" fold="1" page="1" pageScale="1" pageWidth="1920" pageHeight="1200" math="0" shadow="0">
      
      <root>
        
        <mxCell id="NX5Hoqj2XqUnB7T9cLoK-0" />
        
        <mxCell id="NX5Hoqj2XqUnB7T9cLoK-1" parent="NX5Hoqj2XqUnB7T9cLoK-0" />
        
        <mxCell id="NX5Hoqj2XqUnB7T9cLoK-4" value="" style="edgeStyle=orthogonalEdgeStyle;rounded=0;orthogonalLoop=1;jettySize=auto;html=1;" edge="1" parent="NX5Hoqj2XqUnB7T9cLoK-1" source="NX5Hoqj2XqUnB7T9cLoK-2" target="NX5Hoqj2XqUnB7T9cLoK-3">
          
          <mxGeometry relative="1" as="geometry" />
          
        </mxCell>
        
        <mxCell id="NX5Hoqj2XqUnB7T9cLoK-2" value="HelloWorld.jrxml&lt;br&gt;(报表设计文件)" style="rounded=0;whiteSpace=wrap;html=1;" vertex="1" parent="NX5Hoqj2XqUnB7T9cLoK-1">
          
          <mxGeometry x="120" y="360" width="120" height="60" as="geometry" />
          
        </mxCell>
        
        <mxCell id="NX5Hoqj2XqUnB7T9cLoK-6" value="" style="edgeStyle=orthogonalEdgeStyle;rounded=0;orthogonalLoop=1;jettySize=auto;html=1;" edge="1" parent="NX5Hoqj2XqUnB7T9cLoK-1" source="NX5Hoqj2XqUnB7T9cLoK-3" target="NX5Hoqj2XqUnB7T9cLoK-5">
          
          <mxGeometry relative="1" as="geometry" />
          
        </mxCell>
        
        <mxCell id="NX5Hoqj2XqUnB7T9cLoK-3" value="HelloWorld.jasper&lt;br&gt;(报表待填充文件)" style="rounded=0;whiteSpace=wrap;html=1;" vertex="1" parent="NX5Hoqj2XqUnB7T9cLoK-1">
          
          <mxGeometry x="360" y="360" width="120" height="60" as="geometry" />
          
        </mxCell>
        
        <mxCell id="NX5Hoqj2XqUnB7T9cLoK-10" value="" style="edgeStyle=orthogonalEdgeStyle;rounded=0;orthogonalLoop=1;jettySize=auto;html=1;" edge="1" parent="NX5Hoqj2XqUnB7T9cLoK-1" source="NX5Hoqj2XqUnB7T9cLoK-5" target="NX5Hoqj2XqUnB7T9cLoK-9">
          
          <mxGeometry relative="1" as="geometry">
            
            <Array as="points">
              
              <mxPoint x="800" y="390" />
              
              <mxPoint x="800" y="260" />
              
            </Array>
            
          </mxGeometry>
          
        </mxCell>
        
        <mxCell id="NX5Hoqj2XqUnB7T9cLoK-16" value="" style="edgeStyle=orthogonalEdgeStyle;rounded=0;orthogonalLoop=1;jettySize=auto;html=1;entryX=0;entryY=0.5;entryDx=0;entryDy=0;" edge="1" parent="NX5Hoqj2XqUnB7T9cLoK-1" source="NX5Hoqj2XqUnB7T9cLoK-5" target="NX5Hoqj2XqUnB7T9cLoK-11">
          
          <mxGeometry relative="1" as="geometry">
            
            <mxPoint x="660" y="280" as="targetPoint" />
            
          </mxGeometry>
          
        </mxCell>
        
        <mxCell id="NX5Hoqj2XqUnB7T9cLoK-18" value="" style="edgeStyle=orthogonalEdgeStyle;rounded=0;orthogonalLoop=1;jettySize=auto;html=1;entryX=0;entryY=0.5;entryDx=0;entryDy=0;" edge="1" parent="NX5Hoqj2XqUnB7T9cLoK-1" source="NX5Hoqj2XqUnB7T9cLoK-5" target="NX5Hoqj2XqUnB7T9cLoK-12">
          
          <mxGeometry relative="1" as="geometry">
            
            <mxPoint x="660" y="280" as="targetPoint" />
            
          </mxGeometry>
          
        </mxCell>
        
        <mxCell id="NX5Hoqj2XqUnB7T9cLoK-20" value="" style="edgeStyle=orthogonalEdgeStyle;rounded=0;orthogonalLoop=1;jettySize=auto;html=1;entryX=0;entryY=0.5;entryDx=0;entryDy=0;" edge="1" parent="NX5Hoqj2XqUnB7T9cLoK-1" source="NX5Hoqj2XqUnB7T9cLoK-5" target="NX5Hoqj2XqUnB7T9cLoK-13">
          
          <mxGeometry relative="1" as="geometry">
            
            <mxPoint x="660" y="280" as="targetPoint" />
            
          </mxGeometry>
          
        </mxCell>
        
        <mxCell id="NX5Hoqj2XqUnB7T9cLoK-5" value="HelloWorld.jrprint&lt;br&gt;(报表填充文件)" style="rounded=0;whiteSpace=wrap;html=1;" vertex="1" parent="NX5Hoqj2XqUnB7T9cLoK-1">
          
          <mxGeometry x="600" y="360" width="120" height="60" as="geometry" />
          
        </mxCell>
        
        <mxCell id="NX5Hoqj2XqUnB7T9cLoK-7" value="编译" style="text;html=1;align=center;verticalAlign=middle;resizable=0;points=[];autosize=1;" vertex="1" parent="NX5Hoqj2XqUnB7T9cLoK-1">
          
          <mxGeometry x="270" y="370" width="40" height="20" as="geometry" />
          
        </mxCell>
        
        <mxCell id="NX5Hoqj2XqUnB7T9cLoK-8" value="填充" style="text;html=1;align=center;verticalAlign=middle;resizable=0;points=[];autosize=1;" vertex="1" parent="NX5Hoqj2XqUnB7T9cLoK-1">
          
          <mxGeometry x="520" y="370" width="40" height="20" as="geometry" />
          
        </mxCell>
        
        <mxCell id="NX5Hoqj2XqUnB7T9cLoK-9" value="HelloWorld.xml" style="rounded=0;whiteSpace=wrap;html=1;" vertex="1" parent="NX5Hoqj2XqUnB7T9cLoK-1">
          
          <mxGeometry x="880" y="230" width="120" height="60" as="geometry" />
          
        </mxCell>
        
        <mxCell id="NX5Hoqj2XqUnB7T9cLoK-11" value="HelloWorld.xls" style="rounded=0;whiteSpace=wrap;html=1;" vertex="1" parent="NX5Hoqj2XqUnB7T9cLoK-1">
          
          <mxGeometry x="880" y="320" width="120" height="60" as="geometry" />
          
        </mxCell>
        
        <mxCell id="NX5Hoqj2XqUnB7T9cLoK-12" value="HelloWorld.pdf" style="rounded=0;whiteSpace=wrap;html=1;" vertex="1" parent="NX5Hoqj2XqUnB7T9cLoK-1">
          
          <mxGeometry x="880" y="410" width="120" height="60" as="geometry" />
          
        </mxCell>
        
        <mxCell id="NX5Hoqj2XqUnB7T9cLoK-13" value="HelloWorld.html" style="rounded=0;whiteSpace=wrap;html=1;" vertex="1" parent="NX5Hoqj2XqUnB7T9cLoK-1">
          
          <mxGeometry x="880" y="500" width="120" height="60" as="geometry" />
          
        </mxCell>
        
        <mxCell id="NX5Hoqj2XqUnB7T9cLoK-21" value="导出" style="text;html=1;align=center;verticalAlign=middle;resizable=0;points=[];autosize=1;" vertex="1" parent="NX5Hoqj2XqUnB7T9cLoK-1">
          
          <mxGeometry x="740" y="370" width="40" height="20" as="geometry" />
          
        </mxCell>
        
      </root>
      
    </mxGraphModel>
    
  </diagram>
  <diagram id="qhIGSRXL8aqQnU0x-fOg" name="Page-16">
    
    <mxGraphModel dx="1422" dy="761" grid="1" gridSize="10" guides="1" tooltips="1" connect="1" arrows="1" fold="1" page="1" pageScale="1" pageWidth="1920" pageHeight="1200" math="0" shadow="0">
      
      <root>
        
        <mxCell id="Nth-YUdFxgYrNIJuV2A3-0" />
        
        <mxCell id="Nth-YUdFxgYrNIJuV2A3-1" parent="Nth-YUdFxgYrNIJuV2A3-0" />
        
        <mxCell id="Nth-YUdFxgYrNIJuV2A3-2" value="0 x N=0" style="text;html=1;strokeColor=none;fillColor=none;align=center;verticalAlign=middle;whiteSpace=wrap;rounded=0;" vertex="1" parent="Nth-YUdFxgYrNIJuV2A3-1">
          
          <mxGeometry x="330" y="260" width="90" height="20" as="geometry" />
          
        </mxCell>
        
      </root>
      
    </mxGraphModel>
    
  </diagram>
  <diagram id="sLX-VkN9-1KS8R_iGjK0" name="Page-17">
    <mxGraphModel dx="1422" dy="761" grid="1" gridSize="10" guides="1" tooltips="1" connect="1" arrows="1" fold="1" page="1" pageScale="1" pageWidth="1920" pageHeight="1200" math="0" shadow="0">
      <root>
        <mxCell id="crINt9h-XpAzB6FRoHtd-0" />
        <mxCell id="crINt9h-XpAzB6FRoHtd-1" parent="crINt9h-XpAzB6FRoHtd-0" />
        <mxCell id="o7ZsVns1jZ74t-v-PKOm-18" value="" style="rounded=0;whiteSpace=wrap;html=1;" vertex="1" parent="crINt9h-XpAzB6FRoHtd-1">
          <mxGeometry x="862.5" y="400" width="155" height="280" as="geometry" />
        </mxCell>
        <mxCell id="o7ZsVns1jZ74t-v-PKOm-16" value="" style="edgeStyle=orthogonalEdgeStyle;rounded=0;orthogonalLoop=1;jettySize=auto;html=1;" edge="1" parent="crINt9h-XpAzB6FRoHtd-1" source="o7ZsVns1jZ74t-v-PKOm-15" target="o7ZsVns1jZ74t-v-PKOm-13">
          <mxGeometry relative="1" as="geometry" />
        </mxCell>
        <mxCell id="o7ZsVns1jZ74t-v-PKOm-15" value="" style="rounded=0;whiteSpace=wrap;html=1;" vertex="1" parent="crINt9h-XpAzB6FRoHtd-1">
          <mxGeometry x="862.5" y="90" width="155" height="280" as="geometry" />
        </mxCell>
        <mxCell id="o7ZsVns1jZ74t-v-PKOm-2" value="" style="edgeStyle=orthogonalEdgeStyle;rounded=0;orthogonalLoop=1;jettySize=auto;html=1;" edge="1" parent="crINt9h-XpAzB6FRoHtd-1" source="o7ZsVns1jZ74t-v-PKOm-0" target="o7ZsVns1jZ74t-v-PKOm-1">
          <mxGeometry relative="1" as="geometry" />
        </mxCell>
        <mxCell id="o7ZsVns1jZ74t-v-PKOm-0" value="开始" style="rounded=0;whiteSpace=wrap;html=1;" vertex="1" parent="crINt9h-XpAzB6FRoHtd-1">
          <mxGeometry x="160" y="220" width="120" height="60" as="geometry" />
        </mxCell>
        <mxCell id="o7ZsVns1jZ74t-v-PKOm-4" value="" style="edgeStyle=orthogonalEdgeStyle;rounded=0;orthogonalLoop=1;jettySize=auto;html=1;" edge="1" parent="crINt9h-XpAzB6FRoHtd-1" source="o7ZsVns1jZ74t-v-PKOm-1" target="o7ZsVns1jZ74t-v-PKOm-3">
          <mxGeometry relative="1" as="geometry">
            <Array as="points">
              <mxPoint x="400" y="340" />
              <mxPoint x="400" y="340" />
            </Array>
          </mxGeometry>
        </mxCell>
        <mxCell id="o7ZsVns1jZ74t-v-PKOm-23" value="" style="edgeStyle=orthogonalEdgeStyle;rounded=0;orthogonalLoop=1;jettySize=auto;html=1;" edge="1" parent="crINt9h-XpAzB6FRoHtd-1" source="o7ZsVns1jZ74t-v-PKOm-1" target="o7ZsVns1jZ74t-v-PKOm-3">
          <mxGeometry relative="1" as="geometry">
            <Array as="points">
              <mxPoint x="520" y="320" />
              <mxPoint x="520" y="320" />
            </Array>
          </mxGeometry>
        </mxCell>
        <mxCell id="o7ZsVns1jZ74t-v-PKOm-25" value="" style="edgeStyle=orthogonalEdgeStyle;rounded=0;orthogonalLoop=1;jettySize=auto;html=1;entryX=0;entryY=0.5;entryDx=0;entryDy=0;" edge="1" parent="crINt9h-XpAzB6FRoHtd-1" source="o7ZsVns1jZ74t-v-PKOm-1" target="o7ZsVns1jZ74t-v-PKOm-7">
          <mxGeometry relative="1" as="geometry">
            <mxPoint x="770" y="250" as="targetPoint" />
            <Array as="points">
              <mxPoint x="740" y="250" />
              <mxPoint x="740" y="168" />
            </Array>
          </mxGeometry>
        </mxCell>
        <mxCell id="o7ZsVns1jZ74t-v-PKOm-27" value="" style="edgeStyle=orthogonalEdgeStyle;rounded=0;orthogonalLoop=1;jettySize=auto;html=1;entryX=0;entryY=0.5;entryDx=0;entryDy=0;" edge="1" parent="crINt9h-XpAzB6FRoHtd-1" source="o7ZsVns1jZ74t-v-PKOm-1" target="o7ZsVns1jZ74t-v-PKOm-19">
          <mxGeometry relative="1" as="geometry">
            <mxPoint x="630" y="140" as="targetPoint" />
            <Array as="points">
              <mxPoint x="740" y="250" />
              <mxPoint x="740" y="478" />
            </Array>
          </mxGeometry>
        </mxCell>
        <mxCell id="o7ZsVns1jZ74t-v-PKOm-1" value="主业务服务" style="rounded=0;whiteSpace=wrap;html=1;" vertex="1" parent="crINt9h-XpAzB6FRoHtd-1">
          <mxGeometry x="360" y="220" width="240" height="60" as="geometry" />
        </mxCell>
        <mxCell id="o7ZsVns1jZ74t-v-PKOm-6" value="" style="edgeStyle=orthogonalEdgeStyle;rounded=0;orthogonalLoop=1;jettySize=auto;html=1;" edge="1" parent="crINt9h-XpAzB6FRoHtd-1" source="o7ZsVns1jZ74t-v-PKOm-3" target="o7ZsVns1jZ74t-v-PKOm-5">
          <mxGeometry relative="1" as="geometry" />
        </mxCell>
        <mxCell id="o7ZsVns1jZ74t-v-PKOm-29" value="" style="edgeStyle=orthogonalEdgeStyle;rounded=0;orthogonalLoop=1;jettySize=auto;html=1;entryX=0;entryY=0.5;entryDx=0;entryDy=0;dashed=1;" edge="1" parent="crINt9h-XpAzB6FRoHtd-1" source="o7ZsVns1jZ74t-v-PKOm-3" target="o7ZsVns1jZ74t-v-PKOm-9">
          <mxGeometry relative="1" as="geometry">
            <mxPoint x="490" y="390" as="targetPoint" />
            <Array as="points">
              <mxPoint x="780" y="370" />
              <mxPoint x="780" y="250" />
            </Array>
          </mxGeometry>
        </mxCell>
        <mxCell id="o7ZsVns1jZ74t-v-PKOm-31" value="" style="edgeStyle=orthogonalEdgeStyle;rounded=0;orthogonalLoop=1;jettySize=auto;html=1;entryX=0;entryY=0.5;entryDx=0;entryDy=0;dashed=1;" edge="1" parent="crINt9h-XpAzB6FRoHtd-1" source="o7ZsVns1jZ74t-v-PKOm-3" target="o7ZsVns1jZ74t-v-PKOm-20">
          <mxGeometry relative="1" as="geometry">
            <mxPoint x="490" y="390" as="targetPoint" />
            <Array as="points">
              <mxPoint x="780" y="370" />
              <mxPoint x="780" y="560" />
            </Array>
          </mxGeometry>
        </mxCell>
        <mxCell id="o7ZsVns1jZ74t-v-PKOm-33" value="" style="edgeStyle=orthogonalEdgeStyle;rounded=0;orthogonalLoop=1;jettySize=auto;html=1;entryX=0;entryY=0.5;entryDx=0;entryDy=0;dashed=1;dashPattern=1 4;" edge="1" parent="crINt9h-XpAzB6FRoHtd-1" source="o7ZsVns1jZ74t-v-PKOm-3" target="o7ZsVns1jZ74t-v-PKOm-11">
          <mxGeometry relative="1" as="geometry">
            <mxPoint x="490" y="390" as="targetPoint" />
            <Array as="points">
              <mxPoint x="820" y="410" />
              <mxPoint x="820" y="330" />
            </Array>
          </mxGeometry>
        </mxCell>
        <mxCell id="o7ZsVns1jZ74t-v-PKOm-35" value="" style="edgeStyle=orthogonalEdgeStyle;rounded=0;orthogonalLoop=1;jettySize=auto;html=1;entryX=0;entryY=0.5;entryDx=0;entryDy=0;dashed=1;dashPattern=1 2;" edge="1" parent="crINt9h-XpAzB6FRoHtd-1" source="o7ZsVns1jZ74t-v-PKOm-3" target="o7ZsVns1jZ74t-v-PKOm-21">
          <mxGeometry relative="1" as="geometry">
            <mxPoint x="490" y="390" as="targetPoint" />
            <Array as="points">
              <mxPoint x="820" y="410" />
              <mxPoint x="820" y="640" />
            </Array>
          </mxGeometry>
        </mxCell>
        <mxCell id="o7ZsVns1jZ74t-v-PKOm-3" value="事务协调器" style="rounded=0;whiteSpace=wrap;html=1;" vertex="1" parent="crINt9h-XpAzB6FRoHtd-1">
          <mxGeometry x="360" y="360" width="240" height="60" as="geometry" />
        </mxCell>
        <mxCell id="o7ZsVns1jZ74t-v-PKOm-5" value="" style="shape=cylinder;whiteSpace=wrap;html=1;boundedLbl=1;backgroundOutline=1;rounded=0;" vertex="1" parent="crINt9h-XpAzB6FRoHtd-1">
          <mxGeometry x="440" y="490" width="80" height="50" as="geometry" />
        </mxCell>
        <mxCell id="o7ZsVns1jZ74t-v-PKOm-7" value="try" style="rounded=0;whiteSpace=wrap;html=1;" vertex="1" parent="crINt9h-XpAzB6FRoHtd-1">
          <mxGeometry x="880" y="138" width="120" height="60" as="geometry" />
        </mxCell>
        <mxCell id="o7ZsVns1jZ74t-v-PKOm-9" value="confirm" style="rounded=0;whiteSpace=wrap;html=1;" vertex="1" parent="crINt9h-XpAzB6FRoHtd-1">
          <mxGeometry x="880" y="220" width="120" height="60" as="geometry" />
        </mxCell>
        <mxCell id="o7ZsVns1jZ74t-v-PKOm-11" value="cancel" style="rounded=0;whiteSpace=wrap;html=1;" vertex="1" parent="crINt9h-XpAzB6FRoHtd-1">
          <mxGeometry x="880" y="300" width="120" height="60" as="geometry" />
        </mxCell>
        <mxCell id="o7ZsVns1jZ74t-v-PKOm-13" value="" style="shape=cylinder;whiteSpace=wrap;html=1;boundedLbl=1;backgroundOutline=1;rounded=0;" vertex="1" parent="crINt9h-XpAzB6FRoHtd-1">
          <mxGeometry x="1120" y="205" width="80" height="50" as="geometry" />
        </mxCell>
        <mxCell id="o7ZsVns1jZ74t-v-PKOm-17" value="" style="edgeStyle=orthogonalEdgeStyle;rounded=0;orthogonalLoop=1;jettySize=auto;html=1;" edge="1" source="o7ZsVns1jZ74t-v-PKOm-18" target="o7ZsVns1jZ74t-v-PKOm-22" parent="crINt9h-XpAzB6FRoHtd-1">
          <mxGeometry relative="1" as="geometry" />
        </mxCell>
        <mxCell id="o7ZsVns1jZ74t-v-PKOm-19" value="try" style="rounded=0;whiteSpace=wrap;html=1;" vertex="1" parent="crINt9h-XpAzB6FRoHtd-1">
          <mxGeometry x="880" y="448" width="120" height="60" as="geometry" />
        </mxCell>
        <mxCell id="o7ZsVns1jZ74t-v-PKOm-20" value="confirm" style="rounded=0;whiteSpace=wrap;html=1;" vertex="1" parent="crINt9h-XpAzB6FRoHtd-1">
          <mxGeometry x="880" y="530" width="120" height="60" as="geometry" />
        </mxCell>
        <mxCell id="o7ZsVns1jZ74t-v-PKOm-21" value="cancel" style="rounded=0;whiteSpace=wrap;html=1;" vertex="1" parent="crINt9h-XpAzB6FRoHtd-1">
          <mxGeometry x="880" y="610" width="120" height="60" as="geometry" />
        </mxCell>
        <mxCell id="o7ZsVns1jZ74t-v-PKOm-22" value="" style="shape=cylinder;whiteSpace=wrap;html=1;boundedLbl=1;backgroundOutline=1;rounded=0;" vertex="1" parent="crINt9h-XpAzB6FRoHtd-1">
          <mxGeometry x="1120" y="515" width="80" height="50" as="geometry" />
        </mxCell>
        <mxCell id="o7ZsVns1jZ74t-v-PKOm-36" value="1、启动事务" style="text;html=1;align=center;verticalAlign=middle;resizable=0;points=[];autosize=1;" vertex="1" parent="crINt9h-XpAzB6FRoHtd-1">
          <mxGeometry x="420" y="310" width="80" height="20" as="geometry" />
        </mxCell>
        <mxCell id="o7ZsVns1jZ74t-v-PKOm-37" value="3、提交或者回滚" style="text;html=1;align=center;verticalAlign=middle;resizable=0;points=[];autosize=1;" vertex="1" parent="crINt9h-XpAzB6FRoHtd-1">
          <mxGeometry x="520" y="310" width="110" height="20" as="geometry" />
        </mxCell>
        <mxCell id="o7ZsVns1jZ74t-v-PKOm-40" value="2、try" style="text;html=1;align=center;verticalAlign=middle;resizable=0;points=[];autosize=1;" vertex="1" parent="crINt9h-XpAzB6FRoHtd-1">
          <mxGeometry x="630" y="220" width="50" height="20" as="geometry" />
        </mxCell>
        <mxCell id="o7ZsVns1jZ74t-v-PKOm-41" value="4、Confirm" style="text;html=1;align=center;verticalAlign=middle;resizable=0;points=[];autosize=1;" vertex="1" parent="crINt9h-XpAzB6FRoHtd-1">
          <mxGeometry x="615" y="340" width="80" height="20" as="geometry" />
        </mxCell>
        <mxCell id="o7ZsVns1jZ74t-v-PKOm-42" value="5、Cancel" style="text;html=1;align=center;verticalAlign=middle;resizable=0;points=[];autosize=1;" vertex="1" parent="crINt9h-XpAzB6FRoHtd-1">
          <mxGeometry x="620" y="388" width="70" height="20" as="geometry" />
        </mxCell>
        <mxCell id="o7ZsVns1jZ74t-v-PKOm-43" value="日志操作" style="text;html=1;align=center;verticalAlign=middle;resizable=0;points=[];autosize=1;" vertex="1" parent="crINt9h-XpAzB6FRoHtd-1">
          <mxGeometry x="450" y="560" width="60" height="20" as="geometry" />
        </mxCell>
      </root>
    </mxGraphModel>
  </diagram>
  <diagram id="3-8xZw3W-lz9145zF08y" name="Page-18">
    <mxGraphModel dx="1422" dy="761" grid="1" gridSize="10" guides="1" tooltips="1" connect="1" arrows="1" fold="1" page="1" pageScale="1" pageWidth="1920" pageHeight="1200" math="0" shadow="0">
      <root>
        <mxCell id="CUDpqm2N8v422WxfNy77-0" />
        <mxCell id="CUDpqm2N8v422WxfNy77-1" parent="CUDpqm2N8v422WxfNy77-0" />
        <mxCell id="CUDpqm2N8v422WxfNy77-4" value="" style="edgeStyle=orthogonalEdgeStyle;rounded=0;orthogonalLoop=1;jettySize=auto;html=1;" edge="1" parent="CUDpqm2N8v422WxfNy77-1" source="CUDpqm2N8v422WxfNy77-2" target="CUDpqm2N8v422WxfNy77-3">
          <mxGeometry relative="1" as="geometry">
            <Array as="points">
              <mxPoint x="310" y="220" />
              <mxPoint x="310" y="220" />
            </Array>
          </mxGeometry>
        </mxCell>
        <mxCell id="CUDpqm2N8v422WxfNy77-11" value="" style="edgeStyle=orthogonalEdgeStyle;rounded=0;orthogonalLoop=1;jettySize=auto;html=1;dashed=1;dashPattern=1 2;startArrow=classic;startFill=1;endArrow=none;endFill=0;" edge="1" parent="CUDpqm2N8v422WxfNy77-1" source="CUDpqm2N8v422WxfNy77-2" target="CUDpqm2N8v422WxfNy77-3">
          <mxGeometry relative="1" as="geometry">
            <Array as="points">
              <mxPoint x="310" y="250" />
              <mxPoint x="310" y="250" />
            </Array>
          </mxGeometry>
        </mxCell>
        <mxCell id="CUDpqm2N8v422WxfNy77-2" value="Client" style="rounded=0;whiteSpace=wrap;html=1;" vertex="1" parent="CUDpqm2N8v422WxfNy77-1">
          <mxGeometry x="120" y="200" width="120" height="60" as="geometry" />
        </mxCell>
        <mxCell id="CUDpqm2N8v422WxfNy77-6" value="" style="edgeStyle=orthogonalEdgeStyle;rounded=0;orthogonalLoop=1;jettySize=auto;html=1;" edge="1" parent="CUDpqm2N8v422WxfNy77-1" source="CUDpqm2N8v422WxfNy77-3" target="CUDpqm2N8v422WxfNy77-5">
          <mxGeometry relative="1" as="geometry" />
        </mxCell>
        <mxCell id="CUDpqm2N8v422WxfNy77-8" value="" style="edgeStyle=orthogonalEdgeStyle;rounded=0;orthogonalLoop=1;jettySize=auto;html=1;dashed=1;dashPattern=1 2;" edge="1" parent="CUDpqm2N8v422WxfNy77-1" source="CUDpqm2N8v422WxfNy77-3" target="CUDpqm2N8v422WxfNy77-7">
          <mxGeometry relative="1" as="geometry" />
        </mxCell>
        <mxCell id="CUDpqm2N8v422WxfNy77-3" value="支付服务" style="rounded=0;whiteSpace=wrap;html=1;" vertex="1" parent="CUDpqm2N8v422WxfNy77-1">
          <mxGeometry x="380" y="200" width="120" height="60" as="geometry" />
        </mxCell>
        <mxCell id="CUDpqm2N8v422WxfNy77-13" value="" style="edgeStyle=orthogonalEdgeStyle;rounded=0;orthogonalLoop=1;jettySize=auto;html=1;dashed=1;dashPattern=1 2;startArrow=none;startFill=0;endArrow=classic;endFill=1;entryX=0.5;entryY=1;entryDx=0;entryDy=0;exitX=0.5;exitY=1;exitDx=0;exitDy=0;" edge="1" parent="CUDpqm2N8v422WxfNy77-1" source="CUDpqm2N8v422WxfNy77-5" target="CUDpqm2N8v422WxfNy77-3">
          <mxGeometry relative="1" as="geometry">
            <mxPoint x="700" y="340" as="targetPoint" />
            <Array as="points">
              <mxPoint x="700" y="320" />
              <mxPoint x="440" y="320" />
            </Array>
          </mxGeometry>
        </mxCell>
        <mxCell id="CUDpqm2N8v422WxfNy77-5" value="第三方支付" style="rounded=0;whiteSpace=wrap;html=1;" vertex="1" parent="CUDpqm2N8v422WxfNy77-1">
          <mxGeometry x="640" y="200" width="120" height="60" as="geometry" />
        </mxCell>
        <mxCell id="CUDpqm2N8v422WxfNy77-10" value="" style="edgeStyle=orthogonalEdgeStyle;rounded=0;orthogonalLoop=1;jettySize=auto;html=1;" edge="1" parent="CUDpqm2N8v422WxfNy77-1" source="CUDpqm2N8v422WxfNy77-7" target="CUDpqm2N8v422WxfNy77-9">
          <mxGeometry relative="1" as="geometry" />
        </mxCell>
        <mxCell id="CUDpqm2N8v422WxfNy77-7" value="卡券服务" style="rounded=0;whiteSpace=wrap;html=1;" vertex="1" parent="CUDpqm2N8v422WxfNy77-1">
          <mxGeometry x="380" y="60" width="120" height="60" as="geometry" />
        </mxCell>
        <mxCell id="CUDpqm2N8v422WxfNy77-9" value="账户服务" style="rounded=0;whiteSpace=wrap;html=1;" vertex="1" parent="CUDpqm2N8v422WxfNy77-1">
          <mxGeometry x="640" y="60" width="120" height="60" as="geometry" />
        </mxCell>
        <mxCell id="CUDpqm2N8v422WxfNy77-14" value="1、支付" style="text;html=1;align=center;verticalAlign=middle;resizable=0;points=[];autosize=1;" vertex="1" parent="CUDpqm2N8v422WxfNy77-1">
          <mxGeometry x="270" y="190" width="60" height="20" as="geometry" />
        </mxCell>
        <mxCell id="CUDpqm2N8v422WxfNy77-15" value="2、支付" style="text;html=1;align=center;verticalAlign=middle;resizable=0;points=[];autosize=1;" vertex="1" parent="CUDpqm2N8v422WxfNy77-1">
          <mxGeometry x="510" y="200" width="60" height="20" as="geometry" />
        </mxCell>
        <mxCell id="CUDpqm2N8v422WxfNy77-16" value="5、发送卡券" style="text;html=1;align=center;verticalAlign=middle;resizable=0;points=[];autosize=1;" vertex="1" parent="CUDpqm2N8v422WxfNy77-1">
          <mxGeometry x="350" y="140" width="80" height="20" as="geometry" />
        </mxCell>
        <mxCell id="CUDpqm2N8v422WxfNy77-17" value="4、异步结果通知" style="text;html=1;align=center;verticalAlign=middle;resizable=0;points=[];autosize=1;" vertex="1" parent="CUDpqm2N8v422WxfNy77-1">
          <mxGeometry x="520" y="290" width="110" height="20" as="geometry" />
        </mxCell>
        <mxCell id="CUDpqm2N8v422WxfNy77-18" value="3、支付处理中" style="text;html=1;align=center;verticalAlign=middle;resizable=0;points=[];autosize=1;" vertex="1" parent="CUDpqm2N8v422WxfNy77-1">
          <mxGeometry x="260" y="260" width="90" height="20" as="geometry" />
        </mxCell>
        <mxCell id="CUDpqm2N8v422WxfNy77-19" value="6、消费" style="text;html=1;align=center;verticalAlign=middle;resizable=0;points=[];autosize=1;" vertex="1" parent="CUDpqm2N8v422WxfNy77-1">
          <mxGeometry x="530" y="60" width="60" height="20" as="geometry" />
        </mxCell>
      </root>
    </mxGraphModel>
  </diagram>
  <diagram id="bd_67gHSxo5W-am6cWe1" name="Page-19">
    <mxGraphModel dx="1422" dy="761" grid="1" gridSize="10" guides="1" tooltips="1" connect="1" arrows="1" fold="1" page="1" pageScale="1" pageWidth="1920" pageHeight="1200" math="0" shadow="0">
      <root>
        <mxCell id="Q21lNRhfUpDXJwCV2v4p-0" />
        <mxCell id="Q21lNRhfUpDXJwCV2v4p-1" parent="Q21lNRhfUpDXJwCV2v4p-0" />
        <mxCell id="Q21lNRhfUpDXJwCV2v4p-34" value="" style="edgeStyle=orthogonalEdgeStyle;rounded=0;orthogonalLoop=1;jettySize=auto;html=1;startArrow=none;startFill=0;endArrow=classic;endFill=1;entryX=0.5;entryY=1;entryDx=0;entryDy=0;exitX=0.25;exitY=1;exitDx=0;exitDy=0;dashed=1;" edge="1" parent="Q21lNRhfUpDXJwCV2v4p-1" source="Q21lNRhfUpDXJwCV2v4p-5" target="Q21lNRhfUpDXJwCV2v4p-18">
          <mxGeometry relative="1" as="geometry">
            <mxPoint x="450" y="605" as="targetPoint" />
            <Array as="points">
              <mxPoint x="405" y="440" />
              <mxPoint x="190" y="440" />
            </Array>
          </mxGeometry>
        </mxCell>
        <mxCell id="Q21lNRhfUpDXJwCV2v4p-36" value="" style="edgeStyle=orthogonalEdgeStyle;rounded=0;orthogonalLoop=1;jettySize=auto;html=1;startArrow=none;startFill=0;endArrow=classic;endFill=1;entryX=1;entryY=0.7;entryDx=0;entryDy=0;exitX=0.75;exitY=1;exitDx=0;exitDy=0;dashed=1;" edge="1" parent="Q21lNRhfUpDXJwCV2v4p-1" source="Q21lNRhfUpDXJwCV2v4p-5" target="Q21lNRhfUpDXJwCV2v4p-7">
          <mxGeometry relative="1" as="geometry">
            <mxPoint x="450" y="605" as="targetPoint" />
            <Array as="points">
              <mxPoint x="495" y="440" />
              <mxPoint x="755" y="440" />
            </Array>
          </mxGeometry>
        </mxCell>
        <mxCell id="Q21lNRhfUpDXJwCV2v4p-5" value="" style="rounded=0;whiteSpace=wrap;html=1;" vertex="1" parent="Q21lNRhfUpDXJwCV2v4p-1">
          <mxGeometry x="360" y="90" width="180" height="310" as="geometry" />
        </mxCell>
        <mxCell id="Q21lNRhfUpDXJwCV2v4p-15" value="" style="rounded=0;orthogonalLoop=1;jettySize=auto;html=1;startArrow=none;startFill=0;endArrow=classic;endFill=1;entryX=0.5;entryY=1;entryDx=0;entryDy=0;exitX=1;exitY=0.5;exitDx=0;exitDy=0;" edge="1" parent="Q21lNRhfUpDXJwCV2v4p-1" source="Q21lNRhfUpDXJwCV2v4p-2" target="Q21lNRhfUpDXJwCV2v4p-7">
          <mxGeometry relative="1" as="geometry">
            <mxPoint x="588" y="190" as="targetPoint" />
          </mxGeometry>
        </mxCell>
        <mxCell id="Q21lNRhfUpDXJwCV2v4p-2" value="发送消息" style="rounded=0;whiteSpace=wrap;html=1;" vertex="1" parent="Q21lNRhfUpDXJwCV2v4p-1">
          <mxGeometry x="388" y="160" width="120" height="60" as="geometry" />
        </mxCell>
        <mxCell id="Q21lNRhfUpDXJwCV2v4p-19" value="" style="edgeStyle=none;rounded=0;orthogonalLoop=1;jettySize=auto;html=1;startArrow=none;startFill=0;endArrow=classic;endFill=1;" edge="1" parent="Q21lNRhfUpDXJwCV2v4p-1" source="Q21lNRhfUpDXJwCV2v4p-3" target="Q21lNRhfUpDXJwCV2v4p-18">
          <mxGeometry relative="1" as="geometry" />
        </mxCell>
        <mxCell id="Q21lNRhfUpDXJwCV2v4p-3" value="发送消息" style="rounded=0;whiteSpace=wrap;html=1;" vertex="1" parent="Q21lNRhfUpDXJwCV2v4p-1">
          <mxGeometry x="388" y="240" width="120" height="60" as="geometry" />
        </mxCell>
        <mxCell id="Q21lNRhfUpDXJwCV2v4p-17" value="" style="edgeStyle=none;rounded=0;orthogonalLoop=1;jettySize=auto;html=1;startArrow=none;startFill=0;endArrow=classic;endFill=1;entryX=0.5;entryY=1;entryDx=0;entryDy=0;exitX=1;exitY=0.5;exitDx=0;exitDy=0;" edge="1" parent="Q21lNRhfUpDXJwCV2v4p-1" source="Q21lNRhfUpDXJwCV2v4p-4" target="Q21lNRhfUpDXJwCV2v4p-7">
          <mxGeometry relative="1" as="geometry">
            <mxPoint x="588" y="350" as="targetPoint" />
          </mxGeometry>
        </mxCell>
        <mxCell id="Q21lNRhfUpDXJwCV2v4p-4" value="确认消息" style="rounded=0;whiteSpace=wrap;html=1;" vertex="1" parent="Q21lNRhfUpDXJwCV2v4p-1">
          <mxGeometry x="388" y="320" width="120" height="60" as="geometry" />
        </mxCell>
        <mxCell id="Q21lNRhfUpDXJwCV2v4p-6" value="Producer" style="text;html=1;strokeColor=none;fillColor=none;align=center;verticalAlign=middle;whiteSpace=wrap;rounded=0;" vertex="1" parent="Q21lNRhfUpDXJwCV2v4p-1">
          <mxGeometry x="428" y="120" width="40" height="20" as="geometry" />
        </mxCell>
        <mxCell id="Q21lNRhfUpDXJwCV2v4p-24" value="" style="edgeStyle=orthogonalEdgeStyle;rounded=0;orthogonalLoop=1;jettySize=auto;html=1;startArrow=none;startFill=0;endArrow=classic;endFill=1;entryX=1.028;entryY=0.106;entryDx=0;entryDy=0;entryPerimeter=0;exitX=0;exitY=0.5;exitDx=0;exitDy=0;" edge="1" parent="Q21lNRhfUpDXJwCV2v4p-1" source="Q21lNRhfUpDXJwCV2v4p-7" target="Q21lNRhfUpDXJwCV2v4p-5">
          <mxGeometry relative="1" as="geometry">
            <mxPoint x="779" y="101" as="targetPoint" />
          </mxGeometry>
        </mxCell>
        <mxCell id="Q21lNRhfUpDXJwCV2v4p-29" value="" style="edgeStyle=orthogonalEdgeStyle;rounded=0;orthogonalLoop=1;jettySize=auto;html=1;startArrow=none;startFill=0;endArrow=classic;endFill=1;entryX=0.006;entryY=0.581;entryDx=0;entryDy=0;entryPerimeter=0;" edge="1" parent="Q21lNRhfUpDXJwCV2v4p-1" source="Q21lNRhfUpDXJwCV2v4p-7" target="Q21lNRhfUpDXJwCV2v4p-9">
          <mxGeometry relative="1" as="geometry">
            <mxPoint x="857.5" y="270" as="targetPoint" />
          </mxGeometry>
        </mxCell>
        <mxCell id="Q21lNRhfUpDXJwCV2v4p-7" value="" style="shape=cylinder;whiteSpace=wrap;html=1;boundedLbl=1;backgroundOutline=1;rounded=0;rotation=90;" vertex="1" parent="Q21lNRhfUpDXJwCV2v4p-1">
          <mxGeometry x="750" y="210.5" width="58" height="119" as="geometry" />
        </mxCell>
        <mxCell id="Q21lNRhfUpDXJwCV2v4p-9" value="" style="rounded=0;whiteSpace=wrap;html=1;" vertex="1" parent="Q21lNRhfUpDXJwCV2v4p-1">
          <mxGeometry x="1040" y="90" width="180" height="310" as="geometry" />
        </mxCell>
        <mxCell id="Q21lNRhfUpDXJwCV2v4p-10" value="消息幂等处理" style="rounded=0;whiteSpace=wrap;html=1;" vertex="1" parent="Q21lNRhfUpDXJwCV2v4p-1">
          <mxGeometry x="1068" y="160" width="120" height="60" as="geometry" />
        </mxCell>
        <mxCell id="Q21lNRhfUpDXJwCV2v4p-11" value="本地事务" style="rounded=0;whiteSpace=wrap;html=1;" vertex="1" parent="Q21lNRhfUpDXJwCV2v4p-1">
          <mxGeometry x="1068" y="240" width="120" height="60" as="geometry" />
        </mxCell>
        <mxCell id="Q21lNRhfUpDXJwCV2v4p-31" value="" style="edgeStyle=orthogonalEdgeStyle;rounded=0;orthogonalLoop=1;jettySize=auto;html=1;startArrow=none;startFill=0;endArrow=classic;endFill=1;exitX=0.5;exitY=1;exitDx=0;exitDy=0;" edge="1" parent="Q21lNRhfUpDXJwCV2v4p-1" source="Q21lNRhfUpDXJwCV2v4p-12">
          <mxGeometry relative="1" as="geometry">
            <mxPoint x="800" y="299" as="targetPoint" />
            <Array as="points">
              <mxPoint x="1128" y="440" />
              <mxPoint x="800" y="440" />
              <mxPoint x="800" y="299" />
            </Array>
          </mxGeometry>
        </mxCell>
        <mxCell id="Q21lNRhfUpDXJwCV2v4p-12" value="确认消息" style="rounded=0;whiteSpace=wrap;html=1;" vertex="1" parent="Q21lNRhfUpDXJwCV2v4p-1">
          <mxGeometry x="1068" y="320" width="120" height="60" as="geometry" />
        </mxCell>
        <mxCell id="Q21lNRhfUpDXJwCV2v4p-13" value="Producer" style="text;html=1;strokeColor=none;fillColor=none;align=center;verticalAlign=middle;whiteSpace=wrap;rounded=0;" vertex="1" parent="Q21lNRhfUpDXJwCV2v4p-1">
          <mxGeometry x="1108" y="120" width="40" height="20" as="geometry" />
        </mxCell>
        <mxCell id="Q21lNRhfUpDXJwCV2v4p-18" value="" style="shape=cylinder;whiteSpace=wrap;html=1;boundedLbl=1;backgroundOutline=1;rounded=0;" vertex="1" parent="Q21lNRhfUpDXJwCV2v4p-1">
          <mxGeometry x="160" y="230" width="60" height="80" as="geometry" />
        </mxCell>
        <mxCell id="Q21lNRhfUpDXJwCV2v4p-20" value="1、Half消息" style="text;html=1;align=center;verticalAlign=middle;resizable=0;points=[];autosize=1;" vertex="1" parent="Q21lNRhfUpDXJwCV2v4p-1">
          <mxGeometry x="610" y="200" width="80" height="20" as="geometry" />
        </mxCell>
        <mxCell id="Q21lNRhfUpDXJwCV2v4p-21" value="2、执行本地事务" style="text;html=1;align=center;verticalAlign=middle;resizable=0;points=[];autosize=1;" vertex="1" parent="Q21lNRhfUpDXJwCV2v4p-1">
          <mxGeometry x="240" y="240" width="110" height="20" as="geometry" />
        </mxCell>
        <mxCell id="Q21lNRhfUpDXJwCV2v4p-22" value="3、Commit/Rollback" style="text;html=1;align=center;verticalAlign=middle;resizable=0;points=[];autosize=1;" vertex="1" parent="Q21lNRhfUpDXJwCV2v4p-1">
          <mxGeometry x="610" y="320" width="120" height="20" as="geometry" />
        </mxCell>
        <mxCell id="Q21lNRhfUpDXJwCV2v4p-25" value="4、未收到步骤3的确认时，定时回查事务状态" style="text;html=1;align=center;verticalAlign=middle;resizable=0;points=[];autosize=1;" vertex="1" parent="Q21lNRhfUpDXJwCV2v4p-1">
          <mxGeometry x="548" y="100" width="260" height="20" as="geometry" />
        </mxCell>
        <mxCell id="Q21lNRhfUpDXJwCV2v4p-37" value="5、检查本地事务执行结果" style="text;html=1;align=center;verticalAlign=middle;resizable=0;points=[];autosize=1;" vertex="1" parent="Q21lNRhfUpDXJwCV2v4p-1">
          <mxGeometry x="210" y="414" width="150" height="20" as="geometry" />
        </mxCell>
        <mxCell id="Q21lNRhfUpDXJwCV2v4p-38" value="6、根据回查状态Commit/Rollback" style="text;html=1;align=center;verticalAlign=middle;resizable=0;points=[];autosize=1;" vertex="1" parent="Q21lNRhfUpDXJwCV2v4p-1">
          <mxGeometry x="530" y="414" width="200" height="20" as="geometry" />
        </mxCell>
        <mxCell id="Q21lNRhfUpDXJwCV2v4p-39" value="7、Commit消费消息" style="text;html=1;align=center;verticalAlign=middle;resizable=0;points=[];autosize=1;" vertex="1" parent="Q21lNRhfUpDXJwCV2v4p-1">
          <mxGeometry x="880" y="240" width="120" height="20" as="geometry" />
        </mxCell>
        <mxCell id="Q21lNRhfUpDXJwCV2v4p-40" value="8、消息签收确认" style="text;html=1;align=center;verticalAlign=middle;resizable=0;points=[];autosize=1;" vertex="1" parent="Q21lNRhfUpDXJwCV2v4p-1">
          <mxGeometry x="890" y="410" width="110" height="20" as="geometry" />
        </mxCell>
      </root>
    </mxGraphModel>
  </diagram>
</mxfile>
